<?xml version="1.0" encoding="utf-8"?>
<!-- Generator: Adobe Illustrator 29.8.3, SVG Export Plug-In . SVG Version: 9.03 Build 0)  -->
<svg version="1.1" baseProfile="basic" id="Layer_1"
	 xmlns="http://www.w3.org/2000/svg" xmlns:xlink="http://www.w3.org/1999/xlink" x="0px" y="0px" viewBox="0 0 50 50"
	 xml:space="preserve">
<style type="text/css">
	.st0{fill:#0E3B40;}
	.st1{fill:none;stroke:#00C9A7;stroke-width:1.73;stroke-linecap:round;stroke-linejoin:round;stroke-miterlimit:10;}
</style>
<g id="Layer_1_00000040542441983678470020000015948322929493765049_">
</g>
<rect x="-5.7" y="-4.9" class="st0" width="61.5" height="61.5"/>
<g>
	<path class="st1" d="M28.5,13.5H14.6c-1.3,0-2.3,1-2.3,2.3v21.1c0,1.3,1,2.3,2.3,2.3h17.7c1.3,0,2.3-1,2.3-2.3V23.2"/>
	<path class="st1" d="M16.1,23.6L16.1,23.6c0-3.7,3-6.7,6.7-6.7h1.4c3.7,0,6.7,3,6.7,6.7v2.8h-2.6"/>
	<path class="st1" d="M15.7,26.4h2.7v-2.7c0-2.2,1.8-3.9,3.9-3.9h1.7c2.2,0,3.9,1.8,3.9,3.9v0"/>
	<path class="st1" d="M15.7,28.8L15.7,28.8c0,3.7,3,6.8,6.8,6.8H24c3.7,0,6.8-3,6.8-6.8v0"/>
	<path class="st1" d="M18.6,28.5L18.6,28.5c0,2.4,2,4.4,4.4,4.4h0.9c2.4,0,4.4-2,4.4-4.4v0"/>
	<path class="st1" d="M23.5,22.1L23.5,22.1c1.2,0,2.2,1,2.2,2.2v4.2c0,1.2-1,2.2-2.2,2.2h0c-1.2,0-2.2-1-2.2-2.2v-4.2
		C21.3,23.1,22.3,22.1,23.5,22.1z"/>
	<circle class="st1" cx="36" cy="15.6" r="4.8"/>
	<polyline class="st1" points="33.9,15.6 35.2,16.9 37.7,14.4 	"/>
</g>
</svg>
