<?xml version="1.0" encoding="utf-8"?>
<!-- Generator: Adobe Illustrator 29.8.3, SVG Export Plug-In . SVG Version: 9.03 Build 0)  -->
<svg version="1.1" baseProfile="basic" id="Layer_1"
	 xmlns="http://www.w3.org/2000/svg" xmlns:xlink="http://www.w3.org/1999/xlink" x="0px" y="0px" viewBox="0 0 50 50"
	 xml:space="preserve">
<style type="text/css">
	.st0{fill:#0E3B40;}
	.st1{fill:none;stroke:#00C9A7;stroke-width:1.73;stroke-linecap:round;stroke-linejoin:round;stroke-miterlimit:10;}
	.st2{fill:#00C9A7;}
</style>
<g id="Layer_1_00000040542441983678470020000015948322929493765049_">
</g>
<rect x="-5.7" y="-4.9" class="st0" width="61.5" height="61.5"/>
<g>
	<path class="st1" d="M25,10.8c3.5,4.3,11.3,4.9,11.3,4.9v11.5c-0.5,7.5-11.3,12-11.3,12s-10.8-4.6-11.3-12.1V15.7
		C13.7,15.7,21.5,15,25,10.8z"/>
</g>
<g>
	<path class="st2" d="M17.9,22.1V23H20v1.3h-2.1v1.6h-1.7v-5h4.1v1.3H17.9z"/>
	<path class="st2" d="M20.8,20.8h2.5c1.7,0,2.8,1,2.8,2.5c0,1.6-1.2,2.5-2.8,2.5h-2.5V20.8z M23.2,24.6c0.7,0,1.2-0.4,1.2-1.2
		c0-0.8-0.5-1.2-1.2-1.2h-0.7v2.4H23.2z"/>
	<path class="st2" d="M26.8,20.8h1.7v5h-1.7V20.8z"/>
	<path class="st2" d="M29.1,23.4c0-1.5,1.2-2.6,2.8-2.6c1,0,1.8,0.4,2.3,1l-1.1,1c-0.3-0.4-0.6-0.6-1.1-0.6c-0.7,0-1.2,0.5-1.2,1.3
		c0,0.8,0.5,1.3,1.2,1.3c0.5,0,0.8-0.2,1.1-0.6l1.1,1c-0.5,0.6-1.3,1-2.3,1C30.3,26,29.1,24.9,29.1,23.4z"/>
</g>
</svg>
