<?xml version="1.0" encoding="utf-8"?>
<!-- Generator: Adobe Illustrator 29.8.3, SVG Export Plug-In . SVG Version: 9.03 Build 0)  -->
<svg version="1.1" baseProfile="basic" id="Layer_1"
	 xmlns="http://www.w3.org/2000/svg" xmlns:xlink="http://www.w3.org/1999/xlink" x="0px" y="0px" viewBox="0 0 50 50"
	 xml:space="preserve">
<style type="text/css">
	.st0{fill:#0E3B40;}
	.st1{fill:none;stroke:#00C9A7;stroke-width:1.73;stroke-linecap:round;stroke-linejoin:round;stroke-miterlimit:10;}
</style>
<g id="Layer_1_00000040542441983678470020000015948322929493765049_">
</g>
<rect x="-5.7" y="-4.9" class="st0" width="61.5" height="61.5"/>
<g>
	<polyline class="st1" points="15.3,14.3 15.3,39.1 34.7,39.1 34.7,14.3 	"/>
	<path class="st1" d="M11.8,19.2L11.8,19.2c-1.8,0-3.3-1.5-3.3-3.3v-1.7c0-1.8,1.5-3.3,3.3-3.3h26.4c1.8,0,3.3,1.5,3.3,3.3v1.7
		c0,1.8-1.5,3.3-3.3,3.3h-0.3"/>
	<line class="st1" x1="27.5" y1="14" x2="27.5" y2="39.1"/>
	<line class="st1" x1="19.8" y1="15.5" x2="19.8" y2="25.2"/>
	<line class="st1" x1="23.3" y1="15.5" x2="23.3" y2="25.2"/>
	<rect x="19.4" y="29.1" class="st1" width="4.1" height="6.4"/>
</g>
</svg>
