<?xml version="1.0" encoding="utf-8"?>
<!-- Generator: Adobe Illustrator 29.8.3, SVG Export Plug-In . SVG Version: 9.03 Build 0)  -->
<svg version="1.1" baseProfile="basic" id="Layer_1"
	 xmlns="http://www.w3.org/2000/svg" xmlns:xlink="http://www.w3.org/1999/xlink" x="0px" y="0px" viewBox="0 0 50 50"
	 xml:space="preserve">
<style type="text/css">
	.st0{fill:#0E3B40;}
	.st1{fill:none;stroke:#00C9A7;stroke-width:1.73;stroke-linecap:round;stroke-linejoin:round;stroke-miterlimit:10;}
</style>
<g id="Layer_1_00000040542441983678470020000015948322929493765049_">
</g>
<rect x="-5.7" y="-4.9" class="st0" width="61.5" height="61.5"/>
<g>
	<path class="st1" d="M25,13.9L25,13.9c-4.9,0-8.9,4-8.9,8.9v5.8c0,0-0.3,4.7-3.6,6.3H25"/>
	<path class="st1" d="M21.3,35.1v0.6c0,2,1.6,3.7,3.7,3.7h0"/>
	<line class="st1" x1="15.9" y1="30.3" x2="25" y2="30.3"/>
	<path class="st1" d="M22.7,13.9v-0.7c0-1.3,1-2.3,2.3-2.3h0"/>
	<path class="st1" d="M25,13.9L25,13.9c4.9,0,8.9,4,8.9,8.9v5.8c0,0,0.3,4.7,3.6,6.3H25"/>
	<path class="st1" d="M28.7,35.1v0.6c0,2-1.6,3.7-3.7,3.7h0"/>
	<line class="st1" x1="34.1" y1="30.3" x2="25" y2="30.3"/>
	<path class="st1" d="M27.3,13.9v-0.7c0-1.3-1-2.3-2.3-2.3h0"/>
	<path class="st1" d="M25,16.8c0,0-5.1-0.4-5.6,5.7"/>
</g>
</svg>
