<?xml version="1.0" encoding="utf-8"?>
<!-- Generator: Adobe Illustrator 29.8.3, SVG Export Plug-In . SVG Version: 9.03 Build 0)  -->
<svg version="1.1" baseProfile="basic" id="Layer_1"
	 xmlns="http://www.w3.org/2000/svg" xmlns:xlink="http://www.w3.org/1999/xlink" x="0px" y="0px" viewBox="0 0 50 50"
	 xml:space="preserve">
<style type="text/css">
	.st0{fill:#0E3B40;}
	.st1{fill:none;stroke:#00C9A7;stroke-width:1.73;stroke-linecap:round;stroke-linejoin:round;stroke-miterlimit:10;}
</style>
<g id="Layer_1_00000040542441983678470020000015948322929493765049_">
</g>
<rect x="-5.7" y="-4.9" class="st0" width="61.5" height="61.5"/>
<g>
	<path class="st1" d="M18.5,17.8L15,15.7v4.6c0,0-1.5,1.2-2,3.8h-1c-0.9,0-1.7,0.7-1.7,1.7v2.7c0,0.9,0.7,1.7,1.7,1.7h1
		c0,0,1.1,3.4,4.2,5.6v3.5h3.3l1.1-1.9h6.2l1,1.9H32v-3.5c0,0,4.6-2.7,4.6-9s-5.7-8.8-5.7-8.8"/>
	<path class="st1" d="M18.7,21.2c0,0,2.3-2.7,6.4-2.7s6.2,2.7,6.2,2.7"/>
	<path class="st1" d="M36.5,27.1h2.3c0.8,0,1.5-0.7,1.5-1.5v0c0-0.8-0.7-1.5-1.5-1.5h-0.1"/>
	<line class="st1" x1="10.3" y1="27.1" x2="12" y2="27.1"/>
	<path class="st1" d="M20.4,19.9c-0.7-1-1.1-2.1-1.1-3.4c0-3.2,2.6-5.7,5.7-5.7s5.7,2.6,5.7,5.7c0,1.2-0.4,2.4-1.1,3.3"/>
	<line class="st1" x1="17" y1="23.5" x2="17" y2="23.5"/>
</g>
</svg>
