<?xml version="1.0" encoding="utf-8"?>
<!-- Generator: Adobe Illustrator 29.8.3, SVG Export Plug-In . SVG Version: 9.03 Build 0)  -->
<svg version="1.1" baseProfile="basic" id="Layer_1"
	 xmlns="http://www.w3.org/2000/svg" xmlns:xlink="http://www.w3.org/1999/xlink" x="0px" y="0px" viewBox="0 0 50 50"
	 xml:space="preserve">
<style type="text/css">
	.st0{fill:#0E3B40;}
	.st1{fill-rule:evenodd;clip-rule:evenodd;fill:#00C9A7;}
	.st2{fill:#00C9A7;}
</style>
<g id="Layer_1_00000040542441983678470020000015948322929493765049_">
</g>
<rect x="-5.7" y="-4.9" class="st0" width="61.5" height="61.5"/>
<g>
	<g>
		<path class="st1" d="M18.4,17.6c-0.7,0.9-1.9,1.5-3,1.4c-0.1-1.2,0.4-2.4,1.1-3.2c0.7-0.9,2-1.5,3-1.6
			C19.6,15.5,19.2,16.7,18.4,17.6z"/>
		<path class="st1" d="M19.5,19.3c-1-0.1-1.9,0.3-2.7,0.6c-0.5,0.2-0.9,0.4-1.2,0.4c-0.3,0-0.8-0.2-1.3-0.4
			c-0.6-0.3-1.3-0.5-2.1-0.5c-1.7,0-3.3,1-4.2,2.6c-1.8,3.1-0.5,7.8,1.3,10.4c0.9,1.3,1.9,2.7,3.2,2.6c0.6,0,1-0.2,1.5-0.4
			c0.5-0.2,1-0.4,1.9-0.4c0.8,0,1.3,0.2,1.8,0.4c0.5,0.2,0.9,0.4,1.6,0.4c1.4,0,2.3-1.3,3.1-2.5c0.9-1.4,1.3-2.7,1.4-2.9l0,0
			c0,0,0,0,0,0c-0.3-0.1-2.7-1.2-2.7-4.2c0-2.5,1.9-3.7,2.2-3.9c0,0,0,0,0,0C22,19.6,20.1,19.4,19.5,19.3z"/>
	</g>
	<g>
		<path class="st2" d="M42.8,27.6c0,2.5-0.9,4.7-2.5,6.1c-1.4,1.3-3.2,2-5.5,2c-3.1,0-6-1.8-7.4-4.6c-1.2-2.3-1.2-5.1,0-7.4
			c1.4-2.8,4.3-4.6,7.4-4.6c2.1,0,4,0.8,5.5,2.2L38,23.6c-0.9-0.8-2-1.3-3.2-1.2c-2.2,0-4,1.5-4.7,3.4c-0.3,1-0.3,2.2,0,3.2
			c0.7,2,2.5,3.4,4.7,3.4c1.1,0,2.1-0.3,2.8-0.8v0c0.9-0.6,1.5-1.5,1.7-2.5h-4.5v-3.2h7.8C42.8,26.4,42.8,27,42.8,27.6z"/>
	</g>
</g>
</svg>
