<?xml version="1.0" encoding="utf-8"?>
<!-- Generator: Adobe Illustrator 29.8.3, SVG Export Plug-In . SVG Version: 9.03 Build 0)  -->
<svg version="1.1" baseProfile="basic" id="Layer_1"
	 xmlns="http://www.w3.org/2000/svg" xmlns:xlink="http://www.w3.org/1999/xlink" x="0px" y="0px" viewBox="0 0 50 50"
	 xml:space="preserve">
<style type="text/css">
	.st0{fill:#0E3B40;}
	.st1{fill:none;stroke:#00C9A7;stroke-width:1.6649;stroke-linecap:round;stroke-linejoin:round;stroke-miterlimit:10;}
</style>
<g id="Layer_1_00000040542441983678470020000015948322929493765049_">
</g>
<rect x="-5.7" y="-4.9" class="st0" width="61.5" height="61.5"/>
<g>
	<g>
		<path class="st1" d="M19.8,15.3c0,0,2.9,3,2.9,8.6s-2.9,8.3-2.9,8.3"/>
		<path class="st1" d="M17,17.8c0,0,2.1,2.1,2.1,6.1S17,29.8,17,29.8"/>
		<path class="st1" d="M14.6,20.4c0,0,1.1,1.2,1.1,3.4s-1.1,3.3-1.1,3.3"/>
		<path class="st1" d="M27.5,19.9v16.5c0,1.5,1.2,2.7,2.7,2.7h10.1c1.5,0,2.7-1.2,2.7-2.7V19.9c0-1.5-1.2-2.7-2.7-2.7H30.2
			C28.7,17.1,27.5,18.3,27.5,19.9z"/>
		<path class="st1" d="M24.6,35.7c-1.5,0.6-3.1,0.9-4.8,0.9c-7.1,0-12.9-5.8-12.9-12.9s5.8-12.9,12.9-12.9c3.4,0,6.4,1.3,8.7,3.4"/>
	</g>
	<line class="st1" x1="30.8" y1="17.8" x2="30.8" y2="39.1"/>
	<line class="st1" x1="34" y1="17.8" x2="34" y2="39.1"/>
</g>
</svg>
