<?xml version="1.0" encoding="utf-8"?>
<!-- Generator: Adobe Illustrator 29.8.3, SVG Export Plug-In . SVG Version: 9.03 Build 0)  -->
<svg version="1.1" baseProfile="basic" id="Layer_1"
	 xmlns="http://www.w3.org/2000/svg" xmlns:xlink="http://www.w3.org/1999/xlink" x="0px" y="0px" viewBox="0 0 50 50"
	 xml:space="preserve">
<style type="text/css">
	.st0{fill:#0E3B40;}
	.st1{fill:none;stroke:#00C9A7;stroke-width:1.7637;stroke-linecap:round;stroke-linejoin:round;stroke-miterlimit:10;}
	.st2{fill:none;stroke:#00C9A7;stroke-width:1.6848;stroke-linecap:round;stroke-linejoin:round;stroke-miterlimit:10;}
	.st3{fill:#00C9A7;}
</style>
<g id="Layer_1_00000040542441983678470020000015948322929493765049_">
</g>
<rect x="-5.7" y="-4.9" class="st0" width="61.5" height="61.5"/>
<g>
	<g>
		<path class="st1" d="M41.4,32.6c0.3-0.6,0.5-1.2,0.5-1.9V15.1c0-2.3-1.9-4.2-4.2-4.2H12.3c-2.3,0-4.2,1.9-4.2,4.2v15.5
			c0,2.3,1.9,4.2,4.2,4.2h2.4"/>
		<line class="st1" x1="41.9" y1="15.9" x2="8.1" y2="15.9"/>
		<line class="st1" x1="41.9" y1="20.9" x2="8.1" y2="20.9"/>
		<path class="st1" d="M20.5,39.1c-0.9-1.4-1.4-3.1-1.4-5c0-5.3,4.3-9.6,9.6-9.6s9.6,4.3,9.6,9.6c0,1-0.2,2-0.4,2.9"/>
	</g>
	<g>
		<circle class="st2" cx="28.2" cy="35" r="2.8"/>
		<path class="st3" d="M30.2,31.7l2.9-2.3c0.6-0.5,1.4,0.3,0.9,0.9l-2.4,2.8C30.6,34.3,29,32.7,30.2,31.7L30.2,31.7z"/>
	</g>
</g>
</svg>
