<?xml version="1.0" encoding="utf-8"?>
<!-- Generator: Adobe Illustrator 29.8.3, SVG Export Plug-In . SVG Version: 9.03 Build 0)  -->
<svg version="1.1" baseProfile="basic" id="Layer_1"
	 xmlns="http://www.w3.org/2000/svg" xmlns:xlink="http://www.w3.org/1999/xlink" x="0px" y="0px" viewBox="0 0 518 74"
	 xml:space="preserve">
<style type="text/css">
	.st0{fill-rule:evenodd;clip-rule:evenodd;fill:#FFFFFF;}
</style>
<g id="Logo">
	<g id="Group" transform="translate(-80.000000, -80.000000)">
		<g id="Fill-1" transform="translate(80.000000, 80.000000)">
			<path class="st0" d="M511.3,65.4v1.9h1.1c0.7,0,1.1-0.2,1.1-0.9c0-0.6-0.3-0.9-1-0.9H511.3z M510.3,64.6h2.2c1.3,0,2,0.7,2,1.7
				c0,0.9-0.4,1.4-1.1,1.7l1,1.9h-1.1l-0.9-1.7h-1.2v1.7h-1V64.6z M512.4,71.9c2.7,0,4.5-1.6,4.5-4.6c0-3-1.9-4.6-4.5-4.6
				c-2.7,0-4.5,1.6-4.5,4.6C507.8,70.3,509.7,71.9,512.4,71.9L512.4,71.9z M512.4,62c3.4,0,5.4,2.1,5.4,5.3c0,3.2-2,5.3-5.4,5.3
				c-3.4,0-5.4-2.1-5.4-5.3C507,64.1,508.9,62,512.4,62L512.4,62z M260.8,72l-19.3-33.5l18.1-19.8h-18.4l-18.9,21.2V0h-16.3v72h16.3
				V59l7.8-8.3L242.3,72H260.8z M502.4,72L483,38.5l18.1-19.8h-18.2l-19.1,21.2V0h-16.3v72h16.3V59l7.8-8.3L483.9,72H502.4z
				 M123.2,54.2c0,4.9-4.7,8.1-10.1,8.1c-5.1,0-7.6-2.6-7.6-6.2c0-3.8,2.8-6.6,8.5-6.6c3.5,0,6.6,0.6,9.2,1.2V54.2z M145.4,71.1
				V59.8c-0.7,0.2-1.7,0.4-2.8,0.4c-2.1,0-3.2-1.1-3.2-3V38.5c0-14-9.4-21.4-24.9-21.4c-10.1,0-18.7,3.7-24.1,8.5l9.1,10.2
				c3.6-3.2,8.4-5.2,13.1-5.2c7.2,0,10.6,3.6,10.6,9.5v1.7c-3.4-0.8-7.7-1.6-12.9-1.6c-13.1,0-21.6,6.3-21.6,16.7
				c0,10.7,7.1,16.3,18.1,16.3c7.5,0,14.2-3.1,17.7-7.1c2.1,5.3,6.7,6.7,11.2,6.7C138.8,72.8,142.3,72.3,145.4,71.1L145.4,71.1z
				 M282.2,33.5h12.6c7.8,0,11.6-4.4,11.6-9.6c0-6.2-3.6-9.6-11.6-9.6h-12.6V33.5z M306.3,72l-13.7-24.2h-10.5V72h-16.9V0h30.5
				c16.5,0,28,7.9,28,23.4c0,9.9-4.9,16.9-13.6,21.2L325.9,72H306.3z M443.8,31.6c-4.5-9.4-12.9-14.6-25.6-14.6
				c-15,0-28.4,9.4-28.4,28.1c0,18.2,11.8,28.3,28.2,28.3c11.5,0,21.2-4.6,25.8-14.5L430.4,52c-2.4,4.4-6.1,7.2-12,7.2
				c-7.6,0-12.5-5.4-12.5-14.2c0-8.8,5.6-14.1,12.4-14.1c5.3,0,9.3,2.4,11.8,7.6L443.8,31.6z M202,31.6
				c-4.5-9.4-12.9-14.6-25.6-14.6c-15,0-28.4,9.4-28.4,28.1c0,18.2,11.8,28.3,28.2,28.3c11.5,0,21.2-4.6,25.8-14.5L188.7,52
				c-2.4,4.4-6.1,7.2-12,7.2c-7.6,0-12.5-5.4-12.5-14.2c0-8.8,5.6-14.1,12.4-14.1c5.3,0,9.3,2.4,11.8,7.6L202,31.6z M41.3,50.2
				c0,4.7-3.2,7.8-9.4,7.8l-14.8,0V42.4h14.8C37.8,42.4,41.3,45.4,41.3,50.2L41.3,50.2z M39.8,21.3c0,4.9-3.1,7.7-9.1,7.7H17.1V14
				h13.6C36.1,14,39.8,16.4,39.8,21.3L39.8,21.3z M59.3,51.3c0-8.1-4.2-14.3-11.7-17.1c7.1-3.9,9.6-9,9.6-15C57.2,8.6,49.6,0,32.6,0
				L0,0v72h34C51.1,72,59.3,63.5,59.3,51.3L59.3,51.3z M368.5,45.1c0,9.1-6.1,14.2-13.2,14.2c-7.1,0-13.2-5.1-13.2-14.2
				c0-9.2,6.1-14.1,13.2-14.1C362.4,31,368.5,35.9,368.5,45.1L368.5,45.1z M384.6,45.1c0-17.4-13.5-28.2-29.3-28.2
				c-15.9,0-29.3,10.9-29.3,28.2c0,17.4,13.5,28.3,29.3,28.3C371.2,73.4,384.6,62.4,384.6,45.1L384.6,45.1z M65.9,72h16.4V0H65.9V72
				z"/>
		</g>
	</g>
</g>
</svg>
