<?xml version="1.0" encoding="utf-8"?>
<!-- Generator: Adobe Illustrator 29.8.3, SVG Export Plug-In . SVG Version: 9.03 Build 0)  -->
<svg version="1.1" baseProfile="basic" id="Layer_1" xmlns:x="ns_extend;"
	 xmlns="http://www.w3.org/2000/svg" xmlns:xlink="http://www.w3.org/1999/xlink" x="0px" y="0px" viewBox="0 0 350.9 74"
	 xml:space="preserve">
<style type="text/css">
	.st0{fill:#FFFFFF;}
	.st1{fill:#C18E3C;}
	.st2{fill:#368727;}
</style>
<g>
	<path class="st0" d="M74.6,30.1l-21.1,5.1l20.3,7.2l0.1,0.1c0,0.1,0,0.1-0.1,0.1l-21.5-3.3L69,53.6c0,0.1,0,0.1-0.1,0.1l-12.7-7.1
		L65.5,62c-5.9,4.8-13.6,7.6-21.9,7.6c-4.6,0-9-1-13-2.6l1.7-5.4v0L38,44h16.5l-3.6-2.3H38.6l4.8-15.5l-8.2,13.1l2.5,1.7h-3.5L31,46
		l-13.2,6.9L17.6,53c-0.1-0.1-0.1-0.1,0-0.1l16.5-14.1L13,41.3c-0.1-0.1-0.1-0.1,0-0.1l20.4-6l-20.5-6c-0.1-0.1-0.1-0.1,0-0.1
		l21.2,2.3L17.6,17.6l0.1-0.1l18.6,10.1L26.4,8.9c0.1,0,0.1-0.1,0.1,0l13,17L38,3.9c0-0.1,0.1,0,0.1,0l5.6,21.2L50,4.5
		c0.1,0,0.1,0,0.2,0.1l-2.7,21.2L61.3,9.6c0.1,0,0.1,0.1,0.1,0.1L50.8,28.3l19-9.7c0-0.1,0.2-0.1,0.1,0L53,31.4L74.6,30.1
		C74.7,30,74.7,30.1,74.6,30.1z"/>
	<path class="st1" d="M78.1,35.2v0.3c-0.1,10.6-5,20.1-12.7,26.3l-9.2-15.2l12.7,7.1c0.1,0,0.1-0.1,0.1-0.1L52.4,39.2l21.5,3.3
		c0.1,0,0.1,0,0.1-0.1l-0.1-0.1l-20.3-7.2l21.1-5.1c0.1,0,0.1-0.1,0-0.1L53,31.4l17-12.9c0.1-0.1-0.1-0.1-0.1,0l-19,9.7L61.3,9.7
		c0,0,0-0.1-0.1-0.1L47.6,25.7l2.7-21.2c-0.1-0.1-0.1-0.1-0.2-0.1l-6.3,20.6L38.2,3.9c-0.1,0-0.1-0.1-0.1,0l1.5,22l-13-17
		c-0.1-0.1-0.1,0-0.1,0l9.9,18.8L17.6,17.6l-0.1,0.1l16.6,13.7L12.9,29c-0.1,0.1-0.1,0.1,0,0.1l20.5,6l-20.4,6c-0.1,0-0.1,0.1,0,0.1
		l21.1-2.5L17.6,52.9c-0.1,0-0.1,0.1,0,0.1l0.2-0.1L31,46l3.1-5h3.5l-2.5-1.7l8.2-13.1l-4.8,15.5h12.4l3.6,2.3H38l-7.4,23
		c-0.6-0.2-1.3-0.5-1.9-0.8c-0.3-0.1-0.6-0.3-0.9-0.5c-0.2-0.1-0.4-0.2-0.6-0.3c-0.2-0.1-0.4-0.2-0.5-0.3c-0.4-0.2-0.8-0.4-1.2-0.7
		c-0.2-0.1-0.4-0.3-0.6-0.4c-0.2-0.1-0.4-0.3-0.7-0.4c0,0,0,0-0.1,0c-0.2-0.2-0.5-0.3-0.7-0.5c-0.2-0.2-0.5-0.3-0.7-0.5
		c-0.2-0.2-0.5-0.4-0.7-0.6c-0.1-0.1-0.1-0.1-0.2-0.2c-0.2-0.2-0.5-0.4-0.7-0.6c0,0-0.1,0-0.1-0.1c-0.2-0.2-0.4-0.4-0.6-0.6
		c-0.1-0.1-0.3-0.2-0.4-0.3c-0.5-0.5-1-0.9-1.5-1.4c-0.5-0.5-0.9-1-1.4-1.5c-0.3-0.4-0.6-0.7-0.9-1.1c-0.1-0.2-0.2-0.3-0.4-0.5
		c-4.3-5.7-6.8-12.8-6.8-20.6C9.1,16.4,24.4,1,43.4,0.9h0.1c0.4,0,0.8,0,1.2,0c3,0.1,6,0.6,8.7,1.4c7.9,2.3,15.5,7.9,19.9,15.5
		c3,4.9,4.6,10.6,4.9,16.4C78.1,34.6,78.1,34.9,78.1,35.2z"/>
	<path class="st0" d="M16.4,56.3c0.2,0.3,0.5,0.6,0.8,0.9C16.9,56.9,16.6,56.6,16.4,56.3z"/>
	<path class="st1" d="M78.1,35.4c0,3.5-0.5,6.9-1.6,10.3c-1.9,6.2-5.7,12.1-11.1,16.3l-0.1-0.1C73.1,55.6,78,46.1,78.1,35.4z"/>
	<polygon class="st2" points="99.6,59 83.2,59 96.4,11.8 130.3,11.8 127,23 109.8,23 107.5,31 124.8,31 121.9,41.3 104.6,41.3 	"/>
	<path class="st2" d="M137.9,59h-16.3l9.7-34.5h16.3L137.9,59z M148.5,21.2h-16.3l2.7-9.5h16.3L148.5,21.2z"/>
	<path class="st2" d="M180.3,59h-16l1.2-3.8c-3.3,2.7-6.5,4.7-11.8,4.7c-5.3,0-8.7-2.5-8.7-7.9c0-5.9,2.3-14.8,5.9-21
		c2.5-4.6,7.1-7,12.5-7c4.6,0,8,2,9.4,4.6l4.6-16.6h16.3L180.3,59z M168,34.8c-1.4,0-2.9,0.4-3.8,2.5c-1.2,2.9-2.3,5.8-2.3,8.6
		c0,1.3,0.9,2.5,2.5,2.5c1.3,0,2.1-0.4,2.8-0.8l3.3-11.3C170,35.3,169,34.8,168,34.8"/>
	<path class="st2" d="M226.4,43.9h-22.5c-0.4,1.8-0.9,3.1-0.9,4.6c0,0.7,0.1,2.5,2.4,2.5c2.3,0,3.3-0.9,4.3-4.3h16
		c-2,9.8-13.7,13.1-20.8,13.1c-9.7,0-17.2-1.4-17.2-10.7c0-5.1,2.6-13.6,6-18.1c4.1-5.4,11.3-7.4,17.8-7.4
		c10.1,0,16.7,2.1,16.7,10.7C228.2,36.5,227.3,41.1,226.4,43.9 M210.1,32.4c-2,0-3.4,1.4-4.3,4.8h6.7c0.2-0.7,0.4-1.8,0.4-2.4
		C212.9,33,211.8,32.4,210.1,32.4"/>
	<polygon class="st2" points="242.8,59 226.5,59 239.7,11.8 256,11.8 	"/>
	<path class="st2" d="M264.4,59h-16.3l9.7-34.5h16.3L264.4,59z M275,21.2h-16.3l2.7-9.5h16.3L275,21.2z"/>
	<path class="st2" d="M304.3,24.5l1.4,7.8h-12.5l-3.7,13.1c-0.3,1-0.6,2.3-0.6,3.1c0,1.5,0.7,2,2.8,2h3.5l-2.4,8.5h-14.6
		c-4.8,0-6.6-2.3-6.6-5.9c0-1.4,0.2-3,0.7-4.8l8.9-31.5h16.3l-2.2,7.7h8.9V24.5z"/>
	<polygon class="st2" points="82.8,64.3 86.9,64.3 84.2,72.8 80.2,72.8 	"/>
	<polygon class="st2" points="97,64.3 103,64.3 104.5,70 104.5,70 106.3,64.3 109.8,64.3 107.2,72.8 101.5,72.8 99.9,66.8
		99.8,66.8 98,72.8 94.4,72.8 	"/>
	<polygon class="st2" points="117.6,64.3 122,64.3 122.8,69.6 126.9,64.3 131.1,64.3 124.2,72.8 119.2,72.8 	"/>
	<polygon class="st2" points="138.9,64.3 148.1,64.3 147.6,66 142.3,66 141.8,67.8 146.7,67.8 146.2,69.4 141.2,69.4 140.7,71.1
		146.1,71.1 145.6,72.8 136.3,72.8 	"/>
	<polygon class="st2" points="178.6,66.4 175.4,66.4 176.1,64.3 186.5,64.3 185.9,66.4 182.7,66.4 180.8,72.8 176.6,72.8 	"/>
	<polygon class="st2" points="194.9,64.3 201.1,64.3 201.4,70 201.4,70 205.1,64.3 211.2,64.3 208.7,72.8 204.9,72.8 206.8,66.4
		206.8,66.4 202.2,72.8 198.3,72.8 197.7,66.4 197.7,66.4 195.8,72.8 192.3,72.8 	"/>
	<polygon class="st2" points="237.2,64.3 243.1,64.3 244.7,70 244.7,70 246.4,64.3 250,64.3 247.4,72.8 241.6,72.8 240,66.8
		240,66.8 238.1,72.8 234.6,72.8 	"/>
	<polygon class="st2" points="259.7,66.4 256.5,66.4 257.2,64.3 267.6,64.3 266.9,66.4 263.8,66.4 261.9,72.8 257.8,72.8 	"/>
	<path class="st2" d="M330.4,52.1c-2.5,0-4.4,2-4.4,4.4c0,2.5,2,4.4,4.4,4.4c2.5,0,4.4-2,4.4-4.4C334.9,54,332.9,52.1,330.4,52.1
		 M330.4,60.2c-2,0-3.7-1.7-3.7-3.7s1.7-3.7,3.7-3.7c2,0,3.7,1.7,3.7,3.7S332.5,60.2,330.4,60.2"/>
	<path class="st2" d="M332.3,55.6c0-0.9-0.5-1.4-1.6-1.4h-1.7v4.6h0.8v-1.9h0.6l1.2,1.9h0.9l-1.2-2
		C331.7,56.8,332.3,56.4,332.3,55.6 M329.7,56.2v-1.3h0.6c0.5,0,1.1,0,1.1,0.7s-0.6,0.7-1.1,0.7H329.7z"/>
	<path class="st2" d="M160.6,66.9c-0.1-0.1-0.1-0.3-0.1-0.4c0.1-0.4,0.7-0.7,1.5-0.7c0.5,0,1.3,0.1,1.5,0.2c0.2,0.1,0.3,0.4,0.2,0.7
		h3.6c0.4-1.5-0.5-2.5-4.6-2.5c-3.9,0-6.1,0.9-6.6,2.7c-0.1,0.5-0.1,1.1,0.2,1.4c1,1,5.5,1.4,5.9,2c0.1,0.1,0.1,0.2,0.1,0.4
		c-0.2,0.7-1.2,0.9-2,0.9c-0.5,0-1.2-0.1-1.4-0.4c-0.2-0.2-0.2-0.6-0.1-0.8H155c-0.4,1.3-0.5,2.7,4.7,2.7c4.4,0,6.4-1.1,6.9-2.7
		c0.2-0.8,0-1.3-0.3-1.6C165.4,67.8,161,67.4,160.6,66.9"/>
	<polygon class="st2" points="219.6,64.3 228.8,64.3 228.3,66 223,66 222.4,67.8 227.4,67.8 226.9,69.4 221.9,69.4 221.4,71.1
		226.9,71.1 226.3,72.8 217,72.8 	"/>
	<path class="st2" d="M326.4,24.5l-8.9,19.1l0.3-19.1h-16.5l3.2,34.5c-0.4,2-1.1,3.2-2.3,3.7c-1.4,0.7-4.6,0.5-5.6,0.4h-0.2
		l-2.6,9.4h11.1c6.6,0,9.8-3.3,14.5-10.6l23.8-37.4H326.4z"/>
	<path class="st2" d="M278.1,66.9c-0.1-0.1-0.1-0.3-0.1-0.4c0.1-0.4,0.7-0.7,1.5-0.7c0.5,0,1.3,0.1,1.5,0.2c0.2,0.1,0.3,0.4,0.2,0.7
		h3.6c0.4-1.5-0.5-2.5-4.6-2.5c-3.8,0-6.1,0.9-6.6,2.7c-0.1,0.5-0.1,1.1,0.2,1.4c1,1,5.5,1.4,5.9,2c0.1,0.1,0.1,0.2,0.1,0.4
		c-0.2,0.7-1.2,0.9-2,0.9c-0.5,0-1.2-0.1-1.4-0.4c-0.2-0.2-0.2-0.6-0.1-0.8h-3.8c-0.4,1.3-0.5,2.7,4.7,2.7c4.4,0,6.4-1.1,6.9-2.7
		c0.2-0.8,0-1.3-0.3-1.6C283,67.8,278.6,67.4,278.1,66.9"/>
</g>
</svg>
