<?xml version="1.0" encoding="utf-8"?>
<!-- Generator: Adobe Illustrator 29.8.3, SVG Export Plug-In . SVG Version: 9.03 Build 0)  -->
<svg version="1.1" baseProfile="basic" id="Layer_1"
	 xmlns="http://www.w3.org/2000/svg" xmlns:xlink="http://www.w3.org/1999/xlink" x="0px" y="0px" viewBox="0 0 253.2 106"
	 xml:space="preserve">
<style type="text/css">
	.st0{fill:#FFFFFF;fill-opacity:0.95;}
</style>
<path class="st0" d="M59.2,11.6c-9.4,0-15.2,7.1-15.2,19.3c0,12,5.8,19.3,15.2,19.3S74.5,43,74.5,30.9
	C74.5,18.8,68.7,11.6,59.2,11.6z M59.2,47.9c-3.6,0-4.7-3.9-4.7-17.2c0-13.2,1.1-17.1,4.7-17.1c3.6,0,4.7,4,4.7,17.3
	C63.9,44,62.8,47.9,59.2,47.9z M128.7,66.1c-4,0-6.9,1.5-8.6,4.1V57H110v24.6c0,13.3-7.6,19.7-14.5,19.7c-5.1,0-7.2-3.5-7.2-15.5
	c0-12,1.3-17.5,5.4-17.5c2.7,0,5,2.6,7.3,8.6h2.5v-8.9c-3-1.2-6.7-1.8-9.6-1.8c-10.3,0-16.1,7.4-16.1,19.6c0,12,5.8,18.9,15.6,18.9
	c8.1,0,13.9-4.3,16.6-11.6v10.7h10.1V76.3c0-4.2,2.3-6.3,4.7-6.3c2.3,0,3.1,1.9,3.1,4.8v28.9H138v-27
	C138,69.2,134.3,66.1,128.7,66.1z M80.7,2.5v46.7h10.1V2.5H80.7z M117.2,2.5v12.7c-0.9-2.2-3.1-3.6-6.6-3.6
	c-7.9,0-13.2,7.1-13.2,19.1c0,12.2,4.7,19.4,12.8,19.4c3.8,0,6.4-1.8,7.6-5.5v4.6h9.4V2.5H117.2z M112.2,47.1
	c-3.2,0-4.3-3.2-4.3-16.5c0-12.5,1.1-16.2,4.5-16.2c3.7,0,5,4.4,5,16.2C117.4,42.5,115.7,47.1,112.2,47.1z M170.9,11.6
	c-4.5,0-7.8,2.4-9.2,5.7c-1.4-3.8-4.2-5.7-8.2-5.7c-4.3,0-7.4,1.9-8.9,5v-4.1h-9.4v36.7h10V21.9c0-4.2,2-6.3,4.5-6.3
	c2.1,0,3,1.7,3,4.6v29.1h10.1V21.9c0-4.2,2-6.3,4.5-6.3c2.1,0,3,1.7,3,4.6v29.1h10.1v-27C180.5,14.7,176.7,11.6,170.9,11.6z
	 M162.6,82.1l-5.8-3.5c-3.9-2.3-5.3-3.7-5.3-6.1c0-2.7,1.9-4.4,5.1-4.4c3.8,0,6.6,2.5,8.3,8.6h2.5v-9.4c-3.2-0.7-6.8-1.3-10-1.3
	c-8.1,0-13,4-13,10.5c0,4.5,2.5,7.6,7.6,10.7l4.8,2.9c4,2.4,5.4,4.1,5.4,6.8c0,3.5-2.2,5.3-6,5.3c-4.7,0-7.4-3-9.2-9.6h-2.5V103
	c3.7,1,7.6,1.4,10.8,1.4c9.2,0,14.5-4.3,14.5-11.5C169.7,88,167.3,84.9,162.6,82.1z M201.2,11.6c-3.8,0-8.3,0.7-12.5,2v8.6h2.5
	c2.1-5.4,4.9-8.4,8.9-8.4c2.5,0,3.5,1.2,3.5,4v4.7c0,2.3-0.6,3-3.2,3.9l-2.7,0.9c-8,2.7-11.6,6.2-11.6,12.5c0,6.7,4,10.2,9.8,10.2
	c4.1,0,7.6-1.8,8.7-5.3v4.4h9.2V22.6C213.8,15.3,209.5,11.6,201.2,11.6z M203.6,39.4c0,4.8-1.6,7-4.1,7c-2.4,0-3.2-1.9-3.2-6.8v-1
	c0-5.7,1.2-8,4.5-9.7l2.8-1.4V39.4z M240.1,11.6c-4.4,0-7.6,1.9-9.2,5v-4.1h-9.5v36.7h10.1V21.8c0-4.2,2.3-6.3,4.7-6.3
	c2.3,0,3.1,1.9,3.1,4.8v28.9h10.1V22.3C249.5,14.7,245.8,11.6,240.1,11.6z M39.7,88c0,9.4-6.8,15.7-17.8,15.7h-16V86.9h2.4
	c2.2,9.9,6.3,14.3,13.2,14.3c5.6,0,8.6-3,8.6-7.9c0-5.2-3.2-7.6-7.9-10.3l-7.1-4.2C9.1,75.3,5.7,71,5.7,65c0-6.7,3.9-11,10.2-12.8
	C7,49.7,3.8,41.6,3.8,27.2c0-16.4,6.8-25.7,20.8-25.7h12.9v13.8h-2.5c-3-8.8-5.6-11.5-10.3-11.5c-6.9,0-8.8,7.4-8.8,23.8
	c0,18.9,1.7,23.1,6.8,23.1c3.9,0,5.8-2.5,5.8-8.4V35c0-4.4-1.4-6-6-6.7V26h15.4v39.4h-2.3c-3.5-9.9-8-12.1-13-12.1
	c-4.9,0-7.9,2.3-7.9,6.8c0,4.2,2.5,6.2,7.2,9l7.7,4.6C35.6,77.5,39.7,81,39.7,88z M59.1,66.1c-3.8,0-8.3,0.7-12.5,2v8.6h2.5
	c2.1-5.4,4.9-8.4,8.9-8.4c2.5,0,3.5,1.2,3.5,4v4.6c0,2.3-0.6,3-3.2,3.9l-2.7,0.9C47.6,84.4,44,88,44,94.3c0,6.7,4,10.2,9.8,10.2
	c4.1,0,7.6-1.8,8.7-5.3v4.4h9.1V77.1C71.7,69.8,67.2,66.1,59.1,66.1z M61.5,93.9c0,4.8-1.6,7-4.1,7c-2.4,0-3.2-1.9-3.2-6.8v-1
	c0-5.7,1.2-8,4.5-9.7l2.8-1.4V93.9z"/>
</svg>
