<?xml version="1.0" encoding="utf-8"?>
<!-- Generator: Adobe Illustrator 29.8.3, SVG Export Plug-In . SVG Version: 9.03 Build 0)  -->
<svg version="1.1" baseProfile="basic" id="Layer_1" xmlns:x="ns_extend;"
	 xmlns="http://www.w3.org/2000/svg" xmlns:xlink="http://www.w3.org/1999/xlink" x="0px" y="0px" viewBox="0 0 366.3 76"
	 xml:space="preserve">
<style type="text/css">
	.st0{fill:#FFFFFF;}
</style>
<g>
	<path class="st0" d="M39.3,1.5H18.1v1.8h6.8v35.1c0,10.5-3,13.5-9.5,13.5c-2.4,0.3-4.6-1.5-4.9-3.9c0-0.3,0-0.5,0-0.8
		c0-3.8-0.3-6.1-3.7-6.1s-3.9,3.5-3.9,4.6c0,4.9,2.2,8.6,11.8,8.6c11.6,0,17.7-3.8,17.7-16.7V3.3h7.1L39.3,1.5z"/>
	<path class="st0" d="M42,45.8c-1.1,0-2.2,0.4-3,1.2c-0.8,0.8-1.2,1.9-1.2,3c0,1.1,0.4,2.2,1.2,2.9c0.8,0.8,1.9,1.2,3,1.2
		c1.1,0,2.2-0.4,3-1.2c0.8-0.8,1.2-1.8,1.2-2.9c0-2.3-1.8-4.1-4.1-4.1l0,0H42"/>
	<path class="st0" d="M89.2,45.8c-2.2,0-4.1,1.8-4.2,3.9l0,0v0.1c0,1.1,0.5,2.2,1.4,2.9c0.8,0.8,1.9,1.2,3,1.2s2.2-0.4,3-1.2
		c0.8-0.7,1.2-1.8,1.2-2.9c0-1.1-0.4-2.2-1.2-3c-0.8-0.8-1.8-1.2-2.9-1.2"/>
	<path class="st0" d="M74.5,1.5H53.6v1.8h6.1v40c0.1,1.6,0,3.3-0.5,4.9c-0.5,1.1-1.5,2-2.6,2.3c-1.2,0.4-2.6,0.7-3.9,0.7v1.6h22.2
		v-1.6c-1.5,0-2.9-0.1-4.2-0.5c-1.2-0.4-2.2-1.2-2.6-2.3c-0.4-1.1-0.7-2.2-0.5-3.3V31.1H73c16,0,20.5-6.4,20.5-14.9
		S90.7,1.5,74.5,1.5 M71.5,29.1h-4.2V3.5h3.8c12.4,0,15.4,5,15.4,13.2s-4.9,12.6-14.7,12.6"/>
	<path class="st0" d="M159.7,48c-0.4-1.1-0.5-2.3-0.4-3.5V3.3h5.6V1.6h-13.2l-16,39c0,0.1-0.1,0.3-0.3,0.3s-0.3-0.1-0.4-0.3
		c0,0-16.6-38.6-16.7-39h-14.7v1.6h6.4v43.4c0,1-0.4,1.8-0.8,2.6c-0.5,0.8-1.4,1.4-2.3,1.6c-1,0.3-2,0.3-3,0.3v1.6h14.5v-1.6
		c-1,0-1.8-0.1-2.6-0.4c-1.1-0.3-1.9-0.8-2.6-1.6c-0.5-0.8-0.8-1.6-1-2.6l-0.1-3.7V8.6h0.8c0,0,18.9,43.6,18.9,44.2h1.8L151.4,9h0.4
		v35.2c0,1.2-0.1,2.4-0.4,3.7c-0.4,1.1-1.2,1.9-2.2,2.3c-1.2,0.4-2.4,0.7-3.7,0.7v1.6h20.3v-1.6c-1.2,0-2.6-0.3-3.8-0.7
		c-1.1-0.5-1.9-1.5-2.3-2.6"/>
	<path class="st0" d="M187,15.2c-10.9,0-17.7,7.1-17.7,19.6c0,18.3,14.3,19.4,17.4,19.4c6.1,0,17.7-3.8,17.7-19.8
		C204.3,21.9,196.9,15.2,187,15.2 M186.9,51.9c-8.2,0-9.4-4.1-9.4-17c0-10.1,0.7-17.7,9.4-17.7c9.4,0,9.5,7.9,9.5,16.9
		C196.4,47.3,194.1,51.9,186.9,51.9"/>
	<path class="st0" d="M232.7,15.8c-6.5,0-8.4,3.8-10.3,7.7h-0.5c0,0-1-5.6-1.2-7.3H208v1.9h6.8v25.4c0.1,1.8-0.1,3.5-0.8,5.2
		c-0.7,1.2-2.3,1.9-4.8,1.9h-1.1v2.3H229v-2.3h-1c-2.7,0-3.9-0.5-4.6-1.8c-0.7-1.6-1.1-3.5-0.8-5.3V30.3c0-4.3,3.4-9.5,7.3-9.5
		c4.1,0,4.1,6.4,8.8,3.8C241.3,23.1,240.7,15.8,232.7,15.8"/>
	<path class="st0" d="M316.3,48.9c-2.3,0-3-1.2-3.1-3.3V25.6c0.3-2.7-0.7-5.6-2.6-7.6c-1.9-1.9-5.7-3-11.1-3
		c-4.1-0.3-8,0.7-11.6,2.9c-2,1.2-3.3,3.5-3.3,5.8c-0.1,1,0.3,1.9,1,2.6c0.7,0.5,1.5,0.8,2.3,0.8c2,0,3.3-1.1,3.7-3.8
		c0-1.6,0.7-3.1,1.6-4.3c1.4-1.2,3.3-1.9,5-1.6c2-0.3,4.2,0.5,5.6,2.2c1.1,1.6,1.5,3.4,1.5,5.3v6.4c-6.7,0.5-22.6,1.9-21.9,13.9
		c0.5,5,4.9,8.8,9.9,8.7c4.8-0.1,9.2-2.3,12.2-6.1c0.7,3.4,3.7,5.7,7.1,5.6c4.9,0,7.9-2.4,8.2-8.3h-1.2
		C319.3,47.6,317.6,48.9,316.3,48.9 M305.3,45c0,0.1,0,0.1,0,0.3v0.1c-2.2,2.4-5.2,3.9-8.4,4.3c-3.1,0.1-5.8-2.3-6-5.6l0,0
		c0-0.3,0-0.5,0-0.8c0-6.8,9.4-10.2,14.5-10.2L305.3,45z"/>
	<path class="st0" d="M359.2,48.7c-1-1.6-1.4-3.5-1.4-5.4V26.6c0.1-2.2-0.3-4.2-1.2-6.1c-0.8-1.5-2.2-2.9-3.7-3.7
		c-1.8-0.8-3.7-1.2-5.6-1.2c-5-0.1-9.6,2.6-12,7.1h-0.8l-1.4-6.7H322v1.9h5.7v25.3c0,1.5-0.1,2.9-0.4,4.3c-0.3,1.1-1.1,2-2.2,2.3
		c-1,0.4-2,0.5-3.1,0.5v2.3h18.1v-2.3c-1.4,0.1-2.7-0.5-3.7-1.5c-0.8-1.6-1.2-3.4-1-5.2v-9.6c-0.4-3.5,0.1-7.1,1.4-10.5
		c1.5-2.6,4.3-4.2,7.3-4.1c2-0.3,4.1,0.8,5,2.6c1,2.7,1.4,5.7,1.2,8.6v12c0.1,1.5,0.1,3,0,4.5c-0.1,1.1-0.7,2-1.6,2.6
		s-1.9,0.8-2.9,0.8v2.3h17.5v-2.3C361.3,50.3,359.9,49.7,359.2,48.7"/>
	<path class="st0" d="M277.3,13.7c-1.2,0.5-2,1.6-2.2,2.9c-0.3,1.5-0.8,2.3-1.6,2.6c-0.8,0.3-1.8,0.1-2.6-0.1
		c-3.3-2.9-7.6-4.2-11.8-3.9c-7.5-0.5-14.1,5-14.7,12.5c0,0.5,0,1.1,0,1.6c0,7.9,3,11.4,9.5,12.9c0.4,0,0.4,0.5,0,0.5
		c-5.6,1-10.5,2.6-10.5,8c0,2.6,1.6,4.9,4.1,5.7c3.5,1.2,7.2,1.8,10.9,1.6c2.9,0,5.8,0.1,8.7,0.4c1.6,0.1,3.3,0.7,4.8,1.6
		c1.2,1.1,1.9,2.6,1.8,4.2c0,2.6-1.6,4.9-3.9,5.8c-3.1,1.5-6.5,2.2-9.9,2c-3.1,0.3-6.4-0.4-9.1-2c-1.6-1.2-2.4-3.3-1.9-5.2
		c0.5-1.5-0.3-3.3-1.9-3.8h-0.4c-1.2-0.1-2.4,0.4-3.1,1.4c-0.5,1-1,2.2-0.8,3.4c0.1,3.5,2.6,6.4,6.1,7.1c3.3,1.1,6.7,1.5,10.1,1.5
		c3.9,0.1,7.9-0.5,11.6-2.2c4.3-1.9,7.3-6.1,7.3-10.9c0.1-2.3-0.5-4.5-1.8-6.4c-3.7-5-8.8-4.3-20.5-4.9c-5.6,0-6.7-1-6.7-2.6
		c0-2.6,2-3.5,10.1-4.8c8-1.2,15.5-4.2,15.5-13.9c0-2.3-0.4-4.8-1.5-6.9c1.5,0.4,3.1,0.4,4.6,0c1.4-0.4,2.6-1.4,3.3-2.6
		c0.7-1,1-2.3,0.7-3.4C280.5,14,279.2,13.2,277.3,13.7 M259.2,40.5c-4.8,0-7.6-1.8-7.6-11.4c0-6.8,2.3-11.8,7.6-11.8
		c6,0,7.6,4.6,7.6,11.7C266.7,39,263.5,40.5,259.2,40.5"/>
</g>
</svg>
