<?xml version="1.0" encoding="utf-8"?>
<!-- Generator: Adobe Illustrator 29.8.3, SVG Export Plug-In . SVG Version: 9.03 Build 0)  -->
<svg version="1.1" baseProfile="basic" id="Layer_1"
	 xmlns="http://www.w3.org/2000/svg" xmlns:xlink="http://www.w3.org/1999/xlink" x="0px" y="0px" viewBox="0 0 132.7 76"
	 xml:space="preserve">
<style type="text/css">
	.st0{fill:#FF5F00;}
	.st1{fill:#EB001B;}
	.st2{fill:#F79E1B;}
</style>
<g>
	<g>
		<rect x="50.6" y="9.7" class="st0" width="31.5" height="56.6"/>
		<path class="st1" d="M52.6,38c0-11,5.1-21.5,13.7-28.3C50.7-2.6,28,0.1,15.7,15.8C3.5,31.4,6.2,54,21.9,66.3
			c13.1,10.3,31.4,10.3,44.5,0C57.7,59.5,52.6,49,52.6,38z"/>
		<path class="st2" d="M124.6,38c0,19.9-16.1,36-36,36c-8.1,0-15.9-2.7-22.2-7.7C82,54,84.7,31.4,72.4,15.7c-1.8-2.2-3.8-4.3-6-6
			c15.6-12.3,38.3-9.6,50.5,6.1C121.9,22.1,124.6,29.9,124.6,38z"/>
	</g>
</g>
</svg>
