<?xml version="1.0" encoding="utf-8"?>
<!-- Generator: Adobe Illustrator 29.8.3, SVG Export Plug-In . SVG Version: 9.03 Build 0)  -->
<svg version="1.1" baseProfile="basic" id="Layer_1"
	 xmlns="http://www.w3.org/2000/svg" xmlns:xlink="http://www.w3.org/1999/xlink" x="0px" y="0px" viewBox="0 0 313.7 76"
	 xml:space="preserve">
<style type="text/css">
	.st0{fill-rule:evenodd;clip-rule:evenodd;fill:#009EE3;}
	.st1{fill-rule:evenodd;clip-rule:evenodd;fill:#113984;}
	.st2{fill-rule:evenodd;clip-rule:evenodd;fill:#172C70;}
</style>
<g>
	<path class="st0" d="M34.2,18.9h20.3c10.9,0,15,5.5,14.4,13.6C67.8,46,59.7,53.4,49,53.4h-5.4c-1.5,0-2.5,1-2.9,3.6l-2.3,15.4
		c-0.2,1-0.7,1.6-1.5,1.7H24.2c-1.2,0-1.6-0.9-1.3-2.9l7.8-49.2C31,19.9,32,18.9,34.2,18.9z"/>
	<path class="st1" d="M122.4,18c6.9,0,13.2,3.7,12.3,13c-1,11-6.9,17.1-16.3,17.1h-8.1c-1.2,0-1.7,1-2,2.9l-1.6,10
		c-0.2,1.5-1,2.3-2.2,2.3H97c-1.2,0-1.6-0.8-1.4-2.5l6.2-40.1c0.3-2,1-2.7,2.4-2.7H122.4L122.4,18z M110,39.5h6.2
		c3.9-0.1,6.4-2.8,6.7-7.6c0.2-3-1.9-5.1-5-5.1l-5.8,0L110,39.5L110,39.5z M155.2,60.2c0.7-0.6,1.4-1,1.3-0.2l-0.2,1.9
		c-0.1,1,0.3,1.5,1.2,1.5h6.7c1.1,0,1.7-0.5,2-2.2l4.1-26c0.2-1.3-0.1-1.9-1.1-1.9h-7.4c-0.7,0-1,0.4-1.2,1.4l-0.3,1.6
		c-0.1,0.8-0.5,1-0.9,0.1c-1.3-3-4.5-4.3-8.9-4.2c-10.4,0.2-17.4,8.1-18.1,18.2c-0.6,7.8,5,13.9,12.4,13.9
		C150.2,64.3,152.6,62.7,155.2,60.2L155.2,60.2L155.2,60.2z M149.6,56.2c-4.5,0-7.6-3.6-6.9-7.9c0.6-4.4,4.8-7.9,9.3-7.9
		s7.6,3.6,6.9,7.9C158.2,52.7,154.1,56.2,149.6,56.2L149.6,56.2z M183.4,33.2h-6.8c-1.4,0-2,1-1.5,2.3l8.5,24.8l-8.3,11.8
		c-0.7,1-0.2,1.9,0.8,1.9h7.7c0.9,0.1,1.8-0.3,2.3-1.1l26-37.3c0.8-1.1,0.4-2.4-0.9-2.4h-7.2c-1.2,0-1.7,0.5-2.5,1.5l-10.9,15.7
		l-4.8-15.8C185.4,33.7,184.7,33.2,183.4,33.2L183.4,33.2z"/>
	<path class="st0" d="M239.1,18c6.9,0,13.2,3.7,12.3,13c-1,11-6.9,17.1-16.3,17.1H227c-1.2,0-1.7,1-2,2.9l-1.6,10
		c-0.2,1.5-1,2.3-2.2,2.3h-7.6c-1.2,0-1.6-0.8-1.4-2.5l6.3-40.1c0.3-2,1-2.7,2.4-2.7L239.1,18L239.1,18z M226.8,39.5h6.2
		c3.9-0.1,6.4-2.8,6.7-7.6c0.2-3-1.9-5.1-5-5.1l-5.8,0L226.8,39.5L226.8,39.5z M272,60.2c0.7-0.6,1.4-1,1.3-0.2l-0.2,1.9
		c-0.1,1,0.3,1.5,1.2,1.5h6.7c1.1,0,1.7-0.5,2-2.2l4.1-26c0.2-1.3-0.1-1.9-1.1-1.9h-7.4c-0.7,0-1,0.4-1.2,1.4l-0.3,1.6
		c-0.1,0.8-0.5,1-0.9,0.1c-1.3-3-4.5-4.3-8.9-4.2c-10.4,0.2-17.4,8.1-18.1,18.2c-0.6,7.8,5,13.9,12.4,13.9
		C266.9,64.3,269.3,62.7,272,60.2L272,60.2L272,60.2z M266.3,56.2c-4.5,0-7.6-3.6-6.9-7.9s4.8-7.9,9.3-7.9c4.5,0,7.6,3.6,6.9,7.9
		C275,52.7,270.8,56.2,266.3,56.2L266.3,56.2z M297.3,63.4h-7.8c-0.5,0-0.9-0.4-1-0.9c0-0.1,0-0.1,0-0.2l6.8-43.2
		c0.1-0.6,0.7-1,1.3-1h7.8c0.5,0,0.9,0.4,1,0.9c0,0.1,0,0.1,0,0.2l-6.8,43.2C298.5,63,297.9,63.4,297.3,63.4L297.3,63.4z"/>
	<path class="st1" d="M21.5,2h20.3c5.7,0,12.5,0.2,17.1,4.2c3,2.7,4.6,6.9,4.3,11.5c-1.2,15.5-10.5,24.2-23,24.2h-10
		c-1.7,0-2.8,1.1-3.3,4.2L24,64c-0.2,1.2-0.7,1.8-1.6,1.9H9.9c-1.4,0-1.9-1-1.5-3.4l9-57.1C17.8,3.1,19,2,21.5,2z"/>
	<path class="st2" d="M27.1,44.3l3.5-22.5c0.3-2,1.4-2.9,3.5-2.9h20.3c3.4,0,6.1,0.5,8.2,1.5c-2,13.8-11,21.5-22.7,21.5H30
		C28.7,41.9,27.7,42.6,27.1,44.3z"/>
</g>
</svg>
