<?xml version="1.0" encoding="utf-8"?>
<!-- Generator: Adobe Illustrator 29.8.3, SVG Export Plug-In . SVG Version: 9.03 Build 0)  -->
<svg version="1.1" baseProfile="basic" id="Layer_1"
	 xmlns="http://www.w3.org/2000/svg" xmlns:xlink="http://www.w3.org/1999/xlink" x="0px" y="0px" viewBox="0 0 196.3 75"
	 xml:space="preserve">
<style type="text/css">
	.st0{fill-rule:evenodd;clip-rule:evenodd;fill:#635BFF;}
</style>
<g>
	<path class="st0" d="M184.7,38.7c0-12.3-6-22-17.4-22c-11.4,0-18.4,9.7-18.4,21.9c0,14.5,8.2,21.8,19.9,21.8c5.7,0,10-1.3,13.3-3.1
		v-9.6c-3.3,1.6-7,2.6-11.8,2.6c-4.7,0-8.8-1.6-9.3-7.3h23.5C184.6,42.4,184.7,39.9,184.7,38.7z M160.9,34.1c0-5.4,3.3-7.7,6.3-7.7
		c2.9,0,6.1,2.3,6.1,7.7H160.9z"/>
	<path class="st0" d="M130.4,16.7c-4.7,0-7.7,2.2-9.4,3.7l-0.6-3h-10.6v56l12-2.5l0-13.6c1.7,1.2,4.3,3,8.5,3
		c8.6,0,16.4-6.9,16.4-22.2C146.8,24.3,138.8,16.7,130.4,16.7z M127.5,49.8c-2.8,0-4.5-1-5.7-2.3l0-17.8c1.2-1.4,3-2.4,5.7-2.4
		c4.4,0,7.4,4.9,7.4,11.2C134.9,45,131.9,49.8,127.5,49.8z"/>
	<polygon class="st0" points="93.3,13.9 105.3,11.3 105.3,1.5 93.3,4 	"/>
	<rect x="93.3" y="17.5" class="st0" width="12.1" height="42.1"/>
	<path class="st0" d="M80.3,21.1l-0.8-3.6H69.2v42.1h12V31.1c2.8-3.7,7.6-3,9.1-2.5V17.5C88.8,16.9,83.2,15.9,80.3,21.1z"/>
	<path class="st0" d="M56.3,7.1L44.6,9.6l0,38.5c0,7.1,5.3,12.4,12.4,12.4c3.9,0,6.8-0.7,8.4-1.6v-9.8c-1.5,0.6-9.1,2.8-9.1-4.3
		V27.7h9.1V17.5h-9.1L56.3,7.1z"/>
	<path class="st0" d="M23.8,29.7c0-1.9,1.5-2.6,4.1-2.6c3.7,0,8.3,1.1,11.9,3.1V18.9c-4-1.6-7.9-2.2-11.9-2.2
		c-9.8,0-16.2,5.1-16.2,13.6c0,13.3,18.3,11.2,18.3,16.9c0,2.2-1.9,2.9-4.6,2.9c-4,0-9.1-1.6-13.1-3.8v11.4c4.5,1.9,9,2.7,13.1,2.7
		c10,0,16.9-5,16.9-13.6C42.1,32.5,23.8,35.1,23.8,29.7z"/>
</g>
</svg>
