<?xml version="1.0" encoding="utf-8"?>
<!-- Generator: Adobe Illustrator 29.8.3, SVG Export Plug-In . SVG Version: 9.03 Build 0)  -->
<svg version="1.1" baseProfile="basic" id="Layer_1"
	 xmlns="http://www.w3.org/2000/svg" xmlns:xlink="http://www.w3.org/1999/xlink" x="0px" y="0px" viewBox="0 0 50 50"
	 xml:space="preserve">
<style type="text/css">
	.st0{fill:#0E3B40;}
	.st1{fill:none;stroke:#00C9A7;stroke-width:1.73;stroke-linecap:round;stroke-linejoin:round;stroke-miterlimit:10;}
</style>
<g id="Layer_1_00000040542441983678470020000015948322929493765049_">
</g>
<rect x="-5.7" y="-4.9" class="st0" width="61.5" height="61.5"/>
<g>
	<line class="st1" x1="10.9" y1="39.2" x2="20.4" y2="30"/>
	<path class="st1" d="M32.9,23.8v8.8h-3.3c-2.7-8-12.2-12.1-12.2-12.1v-3.2h8.5"/>
	<path class="st1" d="M21.1,22.5l8.9-8.7c1.3-1.3,3-2.2,4.9-2.6c1.6-0.3,3.4-0.5,4.2-0.3c0,0,0,1.8-0.2,3.7
		c-0.2,2.1-1.2,4.1-2.7,5.7l-8.5,8.5"/>
	<circle class="st1" cx="29.8" cy="20.3" r="2"/>
</g>
<polyline class="st1" points="23,23.9 20.7,26.1 23.9,29.3 26.5,27.3 "/>
</svg>
