<?xml version="1.0" encoding="UTF-8"?><svg id="Layer_1" xmlns="http://www.w3.org/2000/svg" viewBox="0 0 61.499999046326 61.499998569489"><defs><style>.cls-1{fill:#00c9a7;}.cls-2{fill:#0e3b40;}</style></defs><rect class="cls-2" width="61.499999046326" height="61.499998569489"/><path class="cls-1" d="M19.300585746765,39.265234470367c-.2626953125,0-.5224609375-.1201171875-.6923828125-.3466796875-1.9453125-2.5927734375-2.9736328125-5.7119140625-2.9736328125-9.0185546875,0-3.35009765625,1.0322265625-6.43896484375,2.984375-8.93310546875.29443359375-.37548828125.8388671875-.44287109375,1.21435546875-.14794921875.3759765625.29443359375.4423828125.83837890625.14794921875,1.21435546875-1.7119140625,2.1865234375-2.6162109375,4.90673828125-2.6162109375,7.86669921875,0,2.9296875.908203125,5.689453125,2.626953125,7.9814453125.28662109375.3818359375.20947265625.923828125-.1728515625,1.2109375-.15576171875.1162109375-.337890625.1728515625-.5185546875.1728515625Z"/><path class="cls-1" d="M30.699999809265,44.965429782867c-3.35009765625,0-6.43896484375-1.0322265625-8.93310546875-2.9833984375-.3759765625-.294921875-.4423828125-.8388671875-.14794921875-1.21484375s.837890625-.4404296875,1.21435546875-.1484375c2.1865234375,1.7119140625,4.9072265625,2.6162109375,7.86669921875,2.6162109375,2.728515625,0,5.4599609375-.9130859375,7.900390625-2.640625.3916015625-.27734375.9287109375-.1845703125,1.2060546875.2060546875.2763671875.390625.18359375.9296875-.2060546875,1.2060546875-2.734375,1.935546875-5.8125,2.958984375-8.900390625,2.958984375Z"/><path class="cls-1" d="M42.099413871765,39.165625095367c-.185546875,0-.3740234375-.060546875-.5322265625-.18359375-.3759765625-.294921875-.4423828125-.837890625-.1484375-1.21484375,1.7119140625-2.1875,2.6162109375-4.908203125,2.6162109375-7.8671875,0-2.666015625-.8330078125-5.33203125-2.3447265625-7.505859375-.2724609375-.392578125-.17578125-.931640625.2158203125-1.2041015625.3916015625-.275390625.931640625-.17529296875,1.2041015625.2158203125,1.7119140625,2.46142578125,2.6552734375,5.47802734375,2.6552734375,8.494140625,0,3.349609375-1.0322265625,6.4384765625-2.9833984375,8.93359375-.1708984375.2177734375-.42578125.33203125-.6826171875.33203125Z"/><path class="cls-1" d="M22.000292778015,19.565039157867c-.25537109375,0-.5078125-.11279296875-.6787109375-.32861328125-.29638671875-.37451171875-.2333984375-.91845703125.1416015625-1.21484375,2.6337890625-2.0849609375,5.82763671875-3.18701171875,9.23681640625-3.18701171875,3.349609375,0,6.4384765625,1.0322265625,8.93359375,2.984375.3759765625.29443359375.4423828125.837890625.1484375,1.21435546875-.2958984375.37646484375-.8388671875.44287109375-1.21484375.14794921875-2.1875-1.71142578125-4.908203125-2.6162109375-7.8671875-2.6162109375-3.01513671875,0-5.837890625.97265625-8.16357421875,2.81298828125-.15869140625.1259765625-.34814453125.18701171875-.5361328125.18701171875Z"/><path class="cls-1" d="M30.699999809265,39.165625095367c-5.10888671875,0-9.26513671875-4.15625-9.26513671875-9.265625,0-5.10888671875,4.15625-9.26513671875,9.26513671875-9.26513671875,5.109375,0,9.265625,4.15625,9.265625,9.26513671875,0,5.109375-4.15625,9.265625-9.265625,9.265625ZM30.699999809265,22.365332126617c-4.15478515625,0-7.53466796875,3.3798828125-7.53466796875,7.53466796875,0,4.1552734375,3.3798828125,7.53515625,7.53466796875,7.53515625,4.1552734375,0,7.53515625-3.3798828125,7.53515625-7.53515625,0-4.15478515625-3.3798828125-7.53466796875-7.53515625-7.53466796875Z"/><path class="cls-1" d="M29.800097465515,33.565039157867c-.21728515625,0-.43408203125-.0810546875-.60205078125-.244140625l-3.19970703125-3.099609375c-.34326171875-.33203125-.35205078125-.8798828125-.01953125-1.22265625.33203125-.34375.87841796875-.35302734375,1.22314453125-.01953125l2.60009765625,2.5185546875,4.69873046875-4.52099609375c.34375-.33056640625.890625-.3212890625,1.22265625.02392578125.3310546875.34423828125.3212890625.8916015625-.0234375,1.22314453125l-5.30029296875,5.09912109375c-.16748046875.1611328125-.38330078125.2421875-.599609375.2421875Z"/><path class="cls-1" d="M23.800097465515,23.865332126617h-2.60009765625c-.23291015625,0-.45654296875-.09423828125-.619140625-.26123046875l-4-4.10009765625c-.31689453125-.32470703125-.3291015625-.83935546875-.02734375-1.1787109375l2.39990234375-2.7001953125c.16064453125-.1806640625.3896484375-.28564453125.63134765625-.2900390625.25390625.0126953125.47412109375.0927734375.640625.267578125l4.2001953125,4.400390625c.15380859375.16064453125.23974609375.37451171875.23974609375.59716796875v2.39990234375c0,.4775390625-.3876953125.865234375-.865234375.865234375ZM21.564745903015,22.134863376617h1.3701171875v-1.18798828125l-3.3125-3.470703125-1.24072265625,1.396484375,3.18310546875,3.26220703125Z"/><path class="cls-1" d="M40.199999809265,23.865332126617h-2.599609375c-.4775390625,0-.865234375-.3876953125-.865234375-.865234375v-2.39990234375c0-.22216796875.0859375-.43603515625.2392578125-.59716796875l4.19921875-4.400390625c.1630859375-.17138671875.3896484375-.26806640625.6259765625-.26806640625.0048828125,0,.009765625.00048828125.015625.00048828125.2412109375.00390625.470703125.109375.630859375.2900390625l2.400390625,2.7001953125c.3017578125.33935546875.2900390625.85400390625-.02734375,1.1787109375l-4,4.10009765625c-.1630859375.1669921875-.3857421875.26123046875-.619140625.26123046875ZM38.465624809265,22.134863376617h1.3701171875l3.1826171875-3.26220703125-1.2412109375-1.396484375-3.3115234375,3.470703125v1.18798828125Z"/><path class="cls-1" d="M41.799609184265,44.465429782867c-.236328125,0-.462890625-.0966796875-.6259765625-.267578125l-4.19921875-4.400390625c-.1533203125-.1611328125-.2392578125-.375-.2392578125-.59765625v-2.3994140625c0-.4775390625.3876953125-.865234375.865234375-.865234375h2.599609375c.2333984375,0,.4560546875.0947265625.619140625.2607421875l4,4.099609375c.3173828125.3251953125.3291015625.83984375.02734375,1.1787109375l-2.400390625,2.7001953125c-.16015625.181640625-.3896484375.2861328125-.630859375.291015625h-.015625ZM38.465624809265,38.853125095367l3.3115234375,3.470703125,1.2412109375-1.396484375-3.1826171875-3.26171875h-1.3701171875v1.1875Z"/><path class="cls-1" d="M19.599902153015,44.465429782867h-.01513671875c-.24169921875-.0048828125-.470703125-.1103515625-.63134765625-.291015625l-2.39990234375-2.7001953125c-.3017578125-.3388671875-.28955078125-.853515625.02734375-1.1787109375l4-4.099609375c.16259765625-.166015625.38623046875-.2607421875.619140625-.2607421875h2.60009765625c.4775390625,0,.865234375.3876953125.865234375.865234375v2.3994140625c0,.22265625-.0859375.4365234375-.23974609375.59765625l-4.2001953125,4.400390625c-.1630859375.1708984375-.38916015625.267578125-.62548828125.267578125ZM18.381640434265,40.927343845367l1.24072265625,1.396484375,3.3125-3.470703125v-1.1875h-1.3701171875l-3.18310546875,3.26171875Z"/></svg>