<?xml version="1.0" encoding="utf-8"?>
<!-- Generator: Adobe Illustrator 29.8.3, SVG Export Plug-In . SVG Version: 9.03 Build 0)  -->
<svg version="1.1" baseProfile="basic" id="Layer_1"
	 xmlns="http://www.w3.org/2000/svg" xmlns:xlink="http://www.w3.org/1999/xlink" x="0px" y="0px" viewBox="0 0 50 50"
	 xml:space="preserve">
<style type="text/css">
	.st0{fill:#0E3B40;}
	.st1{fill:none;stroke:#00C9A7;stroke-width:1.73;stroke-linecap:round;stroke-linejoin:round;stroke-miterlimit:10;}
</style>
<g id="Layer_1_00000040542441983678470020000015948322929493765049_">
</g>
<rect x="-5.7" y="-4.9" class="st0" width="61.5" height="61.5"/>
<g>
	<g>
		<path class="st1" d="M21.8,35.5v-5.1c0-0.7-0.3-1.4-0.8-1.9L18,25.2c-0.5-0.6-1.4-0.6-1.9,0l0,0c-0.5,0.5-0.5,1.4,0,1.9l2.4,2.4"
			/>
		<path class="st1" d="M16,25.3l-0.5-6.4c-0.1-0.7-0.7-1.3-1.4-1.3h0c-0.7,0-1.3,0.6-1.4,1.3l-0.9,8.8c-0.1,0.7,0.2,1.4,0.7,1.9
			L16,33v2.5"/>
		<path class="st1" d="M14.6,36.6v1.5c0,0.6,0.5,1.1,1.1,1.1h6.2c0.6,0,1.1-0.5,1.1-1.1v-1.5c0-0.6-0.5-1.1-1.1-1.1h-6.2
			C15.1,35.5,14.6,36,14.6,36.6z"/>
	</g>
	<g>
		<path class="st1" d="M28.2,35.5v-5.1c0-0.7,0.3-1.4,0.8-1.9l3.1-3.2c0.5-0.6,1.4-0.6,1.9,0v0c0.5,0.5,0.5,1.4,0,1.9l-2.4,2.4"/>
		<path class="st1" d="M34,25.3l0.5-6.4c0.1-0.7,0.7-1.3,1.4-1.3h0c0.7,0,1.3,0.6,1.4,1.3l0.9,8.8c0.1,0.7-0.2,1.4-0.7,1.9L34,33
			v2.5"/>
		<path class="st1" d="M35.4,36.6v1.5c0,0.6-0.5,1.1-1.1,1.1h-6.2c-0.6,0-1.1-0.5-1.1-1.1v-1.5c0-0.6,0.5-1.1,1.1-1.1h6.2
			C34.9,35.5,35.4,36,35.4,36.6z"/>
	</g>
	<circle class="st1" cx="25" cy="14.5" r="3.7"/>
	<path class="st1" d="M22.4,17.2L22.4,17.2c-1.3,0-2.3,1-2.3,2.3v4.2h2.3"/>
	<path class="st1" d="M27.6,17.2L27.6,17.2c1.3,0,2.3,1,2.3,2.3v4.2h-2.3"/>
</g>
</svg>
