<?xml version="1.0" encoding="UTF-8"?><svg id="Layer_1" xmlns="http://www.w3.org/2000/svg" viewBox="0 0 61.499999046326 61.499998569489"><defs><style>.cls-1{fill:#00c9a7;}.cls-2{fill:#0e3b40;}</style></defs><rect class="cls-2" width="61.499999046326" height="61.499998569489"/><path class="cls-1" d="M47.099413871765,28.165136814117c-.171875,0-.3447265625-.05126953125-.49609375-.15771484375l-16.00927734375-11.25439453125-15.80419921875,10.85986328125c-.39404296875.27099609375-.93359375.169921875-1.20263671875-.22314453125-.2705078125-.3935546875-.1708984375-.93212890625.22314453125-1.20263671875l16.2998046875-11.2001953125c.29833984375-.205078125.69140625-.20166015625.9873046875.00537109375l16.5,11.60009765625c.3916015625.2744140625.4853515625.81396484375.2109375,1.205078125-.1689453125.2392578125-.4365234375.36767578125-.708984375.36767578125Z"/><path class="cls-1" d="M43.499804496765,44.965429782867h-25.599609375c-.4775390625,0-.865234375-.3876953125-.865234375-.865234375v-15.2001953125c0-.4775390625.3876953125-.865234375.865234375-.865234375s.865234375.3876953125.865234375.865234375v14.3349609375h23.869140625v-14.3349609375c0-.4775390625.3876953125-.865234375.865234375-.865234375s.865234375.3876953125.865234375.865234375v15.2001953125c0,.4775390625-.3876953125.865234375-.865234375.865234375Z"/><path class="cls-1" d="M38.299609184265,40.864843845367c-.4775390625,0-.865234375-.3876953125-.865234375-.865234375v-2.3994140625c0-3.82421875-3.1103515625-6.93505859375-6.9345703125-6.93505859375-3.82373046875,0-6.9345703125,3.11083984375-6.9345703125,6.93505859375v2.3994140625c0,.4775390625-.3876953125.865234375-.865234375.865234375s-.865234375-.3876953125-.865234375-.865234375v-2.3994140625c0-4.7783203125,3.88720703125-8.66552734375,8.6650390625-8.66552734375,4.77734375,0,8.6650390625,3.88720703125,8.6650390625,8.66552734375v2.3994140625c0,.4775390625-.3876953125.865234375-.865234375.865234375Z"/><path class="cls-1" d="M30.699999809265,30.565039157867c-2.73779296875,0-4.96533203125-2.2275390625-4.96533203125-4.96484375,0-2.73779296875,2.2275390625-4.96533203125,4.96533203125-4.96533203125,2.7373046875,0,4.96484375,2.2275390625,4.96484375,4.96533203125,0,2.7373046875-2.2275390625,4.96484375-4.96484375,4.96484375ZM30.699999809265,22.365332126617c-1.78369140625,0-3.23486328125,1.451171875-3.23486328125,3.23486328125s1.451171875,3.234375,3.23486328125,3.234375c1.783203125,0,3.234375-1.45068359375,3.234375-3.234375s-1.451171875-3.23486328125-3.234375-3.23486328125Z"/><path class="cls-1" d="M35.100390434265,42.065039157867h-8.80029296875c-.421875,0-.7822265625-.3046875-.85302734375-.720703125l-.89990234375-5.2998046875c-.04248046875-.2509765625.02783203125-.5078125.1923828125-.703125.1640625-.1943359375.40576171875-.306640625.66064453125-.306640625h10.599609375c.2548828125,0,.49609375.1123046875.6611328125.306640625.1640625.1953125.234375.4521484375.19140625.703125l-.8994140625,5.2998046875c-.0703125.416015625-.4306640625.720703125-.8525390625.720703125ZM27.030566215515,40.334570407867h7.33935546875l.60546875-3.5693359375h-8.55078125l.60595703125,3.5693359375Z"/></svg>