<?xml version="1.0" encoding="UTF-8"?><svg id="Layer_2" xmlns="http://www.w3.org/2000/svg" viewBox="0 0 27.211133861354028 5.408524071513966"><path d="M10.412794017604028,1.50444384345974v2.53125h-.48095703125l-1.26220703125-1.537109375v1.537109375h-.57861328125V1.50444384345974h.484375l1.2587890625,1.53662109375v-1.53662109375h.57861328125Z"/><path d="M10.822461986354028,3.06303759345974c0-.5859375.4521484375-1.001953125,1.0703125-1.001953125.61865234375,0,1.0673828125.416015625,1.0673828125,1.001953125s-.44873046875,1.00146484375-1.0673828125,1.00146484375c-.6181640625,0-1.0703125-.41552734375-1.0703125-1.00146484375ZM12.388379955104028,3.06303759345974c0-.33642578125-.21337890625-.5390625-.49560546875-.5390625-.28173828125,0-.4990234375.20263671875-.4990234375.5390625s.21728515625.53857421875.4990234375.53857421875c.2822265625,0,.49560546875-.2021484375.49560546875-.53857421875Z"/><path d="M15.208204173854028,2.08989306220974l-.8212890625,1.94580078125h-.58203125l-.8173828125-1.94580078125h.5830078125l.5380859375,1.32373046875.5576171875-1.32373046875h.5419921875Z"/><path d="M17.091016673854028,2.92534228095974v1.1103515625h-.52734375v-.2421875c-.10546875.17724609375-.3076171875.27099609375-.59375.27099609375-.455078125,0-.7265625-.2529296875-.7265625-.58935546875,0-.34375.2421875-.58203125.8349609375-.58203125h.44921875c0-.24267578125-.1455078125-.38330078125-.44921875-.38330078125-.2060546875,0-.4189453125.068359375-.560546875.1806640625l-.2021484375-.39404296875c.2138671875-.15185546875.5283203125-.2353515625.8388671875-.2353515625.59375,0,.9365234375.27490234375.9365234375.8642578125ZM16.527540111354028,3.42094774970974v-.19873046875h-.3876953125c-.263671875,0-.3466796875.09765625-.3466796875.2275390625,0,.14111328125.119140625.2353515625.318359375.2353515625.1875,0,.3505859375-.0869140625.416015625-.26416015625Z"/><path d="M19.958204173854028,3.34477587470974c0,.43798828125-.34765625.69091796875-1.0126953125.69091796875h-1.3095703125V1.50444384345974h1.2373046875c.6328125,0,.9580078125.263671875.9580078125.658203125,0,.2529296875-.1298828125.4482421875-.3359375.556640625.2822265625.09033203125.462890625.3076171875.462890625.62548828125ZM18.218946361354028,1.94536181220974v.5966796875h.58203125c.28515625,0,.44140625-.10107421875.44140625-.2998046875,0-.19921875-.15625-.296875-.44140625-.296875h-.58203125ZM19.368360423854028,3.28325243720974c0-.212890625-.162109375-.314453125-.466796875-.314453125h-.6826171875v.62548828125h.6826171875c.3046875,0,.466796875-.09375.466796875-.31103515625Z"/><path d="M22.078321361354028,2.92534228095974v1.1103515625h-.52734375v-.2421875c-.10546875.17724609375-.3076171875.27099609375-.59375.27099609375-.455078125,0-.7265625-.2529296875-.7265625-.58935546875,0-.34375.2421875-.58203125.8349609375-.58203125h.44921875c0-.24267578125-.14453125-.38330078125-.44921875-.38330078125-.2060546875,0-.4189453125.068359375-.560546875.1806640625l-.2021484375-.39404296875c.2138671875-.15185546875.5283203125-.2353515625.8388671875-.2353515625.59375,0,.9365234375.27490234375.9365234375.8642578125ZM21.514844798854028,3.42094774970974v-.19873046875h-.3876953125c-.263671875,0-.3466796875.09765625-.3466796875.2275390625,0,.14111328125.119140625.2353515625.318359375.2353515625.1875,0,.3505859375-.0869140625.416015625-.26416015625Z"/><path d="M24.572461986354028,2.92192431220974v1.11376953125h-.5634765625v-1.02685546875c0-.31494140625-.14453125-.45947265625-.39453125-.45947265625-.271484375,0-.466796875.16650390625-.466796875.5244140625v.9619140625h-.5634765625v-1.94580078125h.5380859375v.22802734375c.15234375-.16650390625.3798828125-.2568359375.64453125-.2568359375.458984375,0,.8056640625.267578125.8056640625.86083984375Z"/><path d="M25.913282298854028,3.27251024970974l-.271484375.267578125v.49560546875h-.5634765625V1.35258837470974h.5634765625v1.5185546875l.8251953125-.78125h.671875l-.8095703125.82470703125.8818359375,1.12109375h-.6826171875l-.615234375-.76318359375Z"/><polygon points="1.461388819063359 1.116555492467342 1.461388819063359 5.383575484289395 .016068691782493 4.344738171977951 0 .997373498976231 1.461388819063359 1.116555492467342"/><polygon points="4.736961510981018 4.704658598879178 4.856959567407102 .004706733878265 6.302279694687968 1.043544046189709 6.302279694687968 4.437079266404908 4.736961510981018 4.704658598879178"/><polygon points="4.856959567407102 5.408524071513966 0 .997373498976231 1.461388819063359 0 6.302279694687968 4.437079266404908 4.856959567407102 5.408524071513966"/></svg>