<?xml version="1.0" encoding="utf-8"?>
<!-- Generator: Adobe Illustrator 29.8.3, SVG Export Plug-In . SVG Version: 9.03 Build 0)  -->
<svg version="1.1" baseProfile="basic" id="Layer_1"
	 xmlns="http://www.w3.org/2000/svg" xmlns:xlink="http://www.w3.org/1999/xlink" x="0px" y="0px" viewBox="0 0 50 50"
	 xml:space="preserve">
<style type="text/css">
	.st0{fill:#0E3B40;}
	.st1{fill:none;stroke:#00C9A7;stroke-width:1.3928;stroke-linecap:round;stroke-linejoin:round;stroke-miterlimit:10;}
</style>
<g id="Layer_1_00000018217029339300684450000005952980980866390694_">
</g>
<g id="Layer_2_00000159462943937903213530000012146326465971948468_">
	<rect x="-5.7" y="-4.9" class="st0" width="61.5" height="61.5"/>
	<g>
		<circle class="st1" cx="25" cy="25" r="14.2"/>
		<path class="st1" d="M35.3,15.2c-2.6,2.7-6.3,4.4-10.3,4.4c-4.1,0-7.7-1.7-10.3-4.4"/>
		<path class="st1" d="M35.3,34.8c-2.6-2.7-6.3-4.4-10.3-4.4c-4.1,0-7.7,1.7-10.3,4.4"/>
		<line class="st1" x1="10.8" y1="25" x2="39.2" y2="25"/>
		<line class="st1" x1="25" y1="14.5" x2="25" y2="35.5"/>
		<path class="st1" d="M23,10.9c0,0-5.2,6.6-5.2,14.1S23,38.8,23,38.8"/>
		<path class="st1" d="M27,10.9c0,0,5.2,6.6,5.2,14.1S27,38.8,27,38.8"/>
	</g>
</g>
</svg>
