<?xml version="1.0" encoding="utf-8"?>
<!-- Generator: Adobe Illustrator 29.8.3, SVG Export Plug-In . SVG Version: 9.03 Build 0)  -->
<svg version="1.1" baseProfile="basic" id="Layer_1"
	 xmlns="http://www.w3.org/2000/svg" xmlns:xlink="http://www.w3.org/1999/xlink" x="0px" y="0px" viewBox="0 0 50 50"
	 xml:space="preserve">
<style type="text/css">
	.st0{fill:#0E3B40;}
	.st1{fill:none;stroke:#00C9A7;stroke-width:1.3928;stroke-linecap:round;stroke-linejoin:round;stroke-miterlimit:10;}
	.st2{fill:none;stroke:#00C9A7;stroke-width:1.5904;stroke-linecap:round;stroke-linejoin:round;stroke-miterlimit:10;}
	.st3{fill:#00C9A7;}
</style>
<g id="Layer_1_00000016038131073744538780000017102200923073309834_">
</g>
<g id="Layer_2_00000020366579129705422430000015962929704419634612_">
	<rect x="-4.9" y="-4.9" class="st0" width="61.5" height="61.5"/>
	<g>
		<path class="st1" d="M27.9,37.2c-0.9,0.2-1.9,0.3-2.8,0.3c-3.1,0-5.9-1.1-8-3.1"/>
		<path class="st1" d="M17,16.8c2.1-1.9,4.9-3.1,8-3.1c6.1,0,11.2,4.6,11.8,10.5"/>
		<line class="st1" x1="9.5" y1="20.4" x2="15.9" y2="20.4"/>
		<line class="st1" x1="7.6" y1="25.6" x2="14.1" y2="25.6"/>
		<line class="st1" x1="9.9" y1="30.6" x2="16.4" y2="30.6"/>
		<line class="st1" x1="25" y1="13.7" x2="25" y2="10.8"/>
		<line class="st1" x1="22.5" y1="10.8" x2="27.5" y2="10.8"/>
		<circle class="st2" cx="36.4" cy="33.3" r="6"/>
		<circle class="st2" cx="25" cy="25.6" r="2.7"/>
		<path class="st3" d="M26.9,22.5l2.7-2.2c0.6-0.5,1.3,0.3,0.8,0.9l-2.3,2.7C27.3,24.9,25.7,23.4,26.9,22.5L26.9,22.5z"/>
		<polyline class="st2" points="33.9,33 35.7,34.7 38.9,31.6 		"/>
	</g>
</g>
</svg>
