<?xml version="1.0" encoding="utf-8"?>
<!-- Generator: Adobe Illustrator 29.8.3, SVG Export Plug-In . SVG Version: 9.03 Build 0)  -->
<svg version="1.1" baseProfile="basic" id="Layer_1"
	 xmlns="http://www.w3.org/2000/svg" xmlns:xlink="http://www.w3.org/1999/xlink" x="0px" y="0px" viewBox="0 0 50 50"
	 xml:space="preserve">
<style type="text/css">
	.st0{fill:#0E3B40;}
	.st1{fill:none;stroke:#00C9A7;stroke-width:1.5825;stroke-linecap:round;stroke-linejoin:round;stroke-miterlimit:10;}
</style>
<g id="Layer_1_00000087413483425959257480000012433597678139000237_">
</g>
<g id="Layer_2_00000031174033423512890510000012085817548061131148_">
	<rect x="-5.7" y="-4.9" class="st0" width="61.5" height="61.5"/>
	<g>
		<g>
			<circle class="st1" cx="29.6" cy="22" r="9.4"/>
			<path class="st1" d="M24.3,32.7c-0.7,2.2-2.2,4.2-4.4,5.4c-4.6,2.5-10.2,0.8-12.7-3.7s-0.8-10.2,3.7-12.7c2.2-1.2,4.7-1.5,7-0.8"
				/>
			<circle class="st1" cx="29.6" cy="22" r="5"/>
			<circle class="st1" cx="29.6" cy="22" r="1.3"/>
			<line class="st1" x1="29.6" y1="22" x2="40.7" y2="14.1"/>
			<polyline class="st1" points="36.5,17 36.9,13.8 41.1,10.7 40.7,14.1 			"/>
			<polyline class="st1" points="36.6,17.1 39.8,17.7 44,14.6 40.7,14.1 			"/>
			<path class="st1" d="M19.7,31.2c-0.4,1.1-1.1,2.1-2.2,2.7c-2.3,1.3-5.1,0.5-6.4-1.8S10.7,27,13,25.7c1.1-0.6,2.4-0.7,3.5-0.5"/>
		</g>
		<line class="st1" x1="9.7" y1="32.2" x2="14.4" y2="29.1"/>
		<line class="st1" x1="10.8" y1="34.1" x2="15.6" y2="30.9"/>
	</g>
</g>
</svg>
