<?xml version="1.0" encoding="utf-8"?>
<!-- Generator: Adobe Illustrator 29.8.3, SVG Export Plug-In . SVG Version: 9.03 Build 0)  -->
<svg version="1.1" baseProfile="basic" id="Layer_1"
	 xmlns="http://www.w3.org/2000/svg" xmlns:xlink="http://www.w3.org/1999/xlink" x="0px" y="0px" viewBox="0 0 50 50"
	 xml:space="preserve">
<style type="text/css">
	.st0{fill:#0E3B40;}
	.st1{fill:none;stroke:#00C9A7;stroke-width:1.3928;stroke-linecap:round;stroke-linejoin:round;stroke-miterlimit:10;}
</style>
<g id="Layer_1_00000080190098247321332130000015861313645941482647_">
</g>
<g id="Layer_2_00000134941044361225382640000002250507305844196482_">
	<rect x="-5.7" y="-4.9" class="st0" width="61.5" height="61.5"/>
	<g>
		<g>
			<path class="st1" d="M19.5,21.4v-7.3c0-1.9,1.4-3.3,3.3-3.3h12.2c1.9,0,3.3,1.4,3.3,3.3v19.2c0,1.9-1.4,3.3-3.3,3.3h-8.3"/>
			<rect x="22" y="13.6" class="st1" width="13.8" height="4.8"/>
			<path class="st1" d="M22.3,22.4c0.3-0.3,0.8-0.6,1.3-0.6c1,0,1.8,0.8,1.8,1.8c0,0.2,0,0.2,0,0.4"/>
			<circle class="st1" cx="28.9" cy="23.6" r="1.8"/>
			<circle class="st1" cx="28.9" cy="29.3" r="1.8"/>
			<circle class="st1" cx="34.2" cy="23.6" r="1.8"/>
			<line class="st1" x1="26.8" y1="33.5" x2="30.7" y2="33.5"/>
			<path class="st1" d="M35,34.2h-1.8c-0.4,0-0.8-0.3-0.8-0.8v-4.8c0-0.4,0.3-0.8,0.8-0.8H35c0.4,0,0.8,0.3,0.8,0.8v4.8
				C35.8,33.8,35.5,34.2,35,34.2z"/>
		</g>
		<g>
			<ellipse class="st1" cx="18.1" cy="26.8" rx="6.4" ry="3.1"/>
			<path class="st1" d="M11.6,36.1c0,1.8,2.9,3.1,6.4,3.1s6.4-1.4,6.4-3.1"/>
			<path class="st1" d="M11.6,32.9c0,1.8,2.9,3.1,6.4,3.1s6.4-1.4,6.4-3.1"/>
			<path class="st1" d="M11.6,29.8c0,1.8,2.9,3.1,6.4,3.1s6.4-1.4,6.4-3.1"/>
			<line class="st1" x1="11.6" y1="26.8" x2="11.6" y2="36.1"/>
			<line class="st1" x1="24.5" y1="26.8" x2="24.5" y2="36.1"/>
		</g>
	</g>
</g>
</svg>
