<?xml version="1.0" encoding="utf-8"?>
<!-- Generator: Adobe Illustrator 29.8.3, SVG Export Plug-In . SVG Version: 9.03 Build 0)  -->
<svg version="1.1" baseProfile="basic" id="Layer_1"
	 xmlns="http://www.w3.org/2000/svg" xmlns:xlink="http://www.w3.org/1999/xlink" x="0px" y="0px" viewBox="0 0 50 50"
	 xml:space="preserve">
<style type="text/css">
	.st0{fill:#0E3B40;}
	.st1{fill:none;stroke:#00C9A7;stroke-width:1.3928;stroke-linecap:round;stroke-linejoin:round;stroke-miterlimit:10;}
</style>
<g id="Layer_1_00000148654081070676710310000011201901905301581193_">
</g>
<g id="Layer_2_00000176043153326192279890000003381367015086105499_">
	<rect x="-5.7" y="-4.9" class="st0" width="61.5" height="61.5"/>
	<g>
		<path class="st1" d="M10.8,19.9v10.3c0,0.8,0.6,1.5,1.5,1.5h16.1c0.8,0,1.5-0.6,1.5-1.5V19.9c0-0.8-0.6-1.5-1.5-1.5H12.4
			C11.5,18.4,10.8,19,10.8,19.9z"/>
		<polyline class="st1" points="25.6,20.7 23.5,20.7 23.5,23.1 27.6,23.1 27.6,20.7 		"/>
		<line class="st1" x1="13.2" y1="26.3" x2="15.3" y2="26.3"/>
		<line class="st1" x1="17.3" y1="26.3" x2="19.4" y2="26.3"/>
		<line class="st1" x1="21.3" y1="26.3" x2="23.5" y2="26.3"/>
		<line class="st1" x1="25.4" y1="26.3" x2="27.6" y2="26.3"/>
		<line class="st1" x1="13.2" y1="29.3" x2="19.4" y2="29.3"/>
		<path class="st1" d="M22.9,16.1V13c0-1.3,1-2.3,2.3-2.3h11.7c1.3,0,2.3,1,2.3,2.3v26.2"/>
		<path class="st1" d="M34.7,39.2h-9.6c-1.3,0-2.3-1-2.3-2.3v-2.7"/>
		<line class="st1" x1="27.5" y1="13.6" x2="34.4" y2="13.6"/>
		<line class="st1" x1="30.3" y1="36.8" x2="31.8" y2="36.8"/>
		<line class="st1" x1="32.2" y1="22.3" x2="36.1" y2="22.3"/>
		<line class="st1" x1="34.7" y1="23.6" x2="36.1" y2="22.3"/>
		<line class="st1" x1="34.7" y1="21.1" x2="36.1" y2="22.3"/>
	</g>
</g>
</svg>
