<?xml version="1.0" encoding="utf-8"?>
<!-- Generator: Adobe Illustrator 29.8.3, SVG Export Plug-In . SVG Version: 9.03 Build 0)  -->
<svg version="1.1" baseProfile="basic" id="Layer_1"
	 xmlns="http://www.w3.org/2000/svg" xmlns:xlink="http://www.w3.org/1999/xlink" x="0px" y="0px" viewBox="0 0 50 50"
	 xml:space="preserve">
<style type="text/css">
	.st0{fill:#0E3B40;}
	.st1{fill:none;stroke:#00C9A7;stroke-width:1.6649;stroke-linecap:round;stroke-linejoin:round;stroke-miterlimit:10;}
</style>
<g id="Layer_1_00000040542441983678470020000015948322929493765049_">
</g>
<rect x="-5.7" y="-4.9" class="st0" width="61.5" height="61.5"/>
<path class="st1" d="M37.1,26c0-0.3,0-0.6,0-0.9c0-0.4,0-0.8-0.1-1.3l1.9-1.1c-0.4-2.3-1.3-4.5-2.7-6.3L34.2,17
	c-0.5-0.5-1-1-1.5-1.4l0.6-2.1c-1.8-1.3-4-2.2-6.4-2.5l-1,2c-0.3,0-0.6,0-0.9,0c-0.4,0-0.8,0-1.2,0.1L22.7,11
	c-2.3,0.4-4.5,1.3-6.3,2.7l0.7,2.1c-0.5,0.4-1,0.9-1.4,1.4l-2.1-0.6c-1.4,1.8-2.3,4-2.6,6.3l1.9,1.1c0,0.4-0.1,0.7-0.1,1.1
	c0,0.3,0,0.6,0,0.9l-2,1.1c0.3,2.4,1.2,4.5,2.6,6.4l2.1-0.6c0.4,0.5,0.9,1,1.5,1.5l-0.6,2.1c1.8,1.4,4,2.3,6.3,2.7l1.1-1.9
	c0.4,0,0.8,0.1,1.2,0.1c0.3,0,0.6,0,1,0l1.1,2c2.4-0.3,4.5-1.2,6.4-2.6l-0.6-2.1c0.6-0.5,1.2-1,1.6-1.6l2.1,0.6
	c1.3-1.8,2.2-4,2.6-6.4L37.1,26z M26.4,32.2c-5.2,1-9.6-3.5-8.6-8.6c0.5-2.9,2.9-5.2,5.7-5.7c5.2-1,9.6,3.5,8.6,8.6
	C31.6,29.3,29.3,31.6,26.4,32.2z"/>
</svg>
