<?xml version="1.0" encoding="utf-8"?>
<!-- Generator: Adobe Illustrator 29.8.3, SVG Export Plug-In . SVG Version: 9.03 Build 0)  -->
<svg version="1.1" baseProfile="basic" id="Layer_1"
	 xmlns="http://www.w3.org/2000/svg" xmlns:xlink="http://www.w3.org/1999/xlink" x="0px" y="0px" viewBox="0 0 50 50"
	 xml:space="preserve">
<style type="text/css">
	.st0{fill:#0E3B40;}
	.st1{fill:none;stroke:#00C9A7;stroke-width:1.6649;stroke-linecap:round;stroke-linejoin:round;stroke-miterlimit:10;}
	.st2{fill:#00C9A7;}
</style>
<g id="Layer_1_00000040542441983678470020000015948322929493765049_">
</g>
<rect x="-5.7" y="-4.9" class="st0" width="61.5" height="61.5"/>
<g>
	<g>
		<path class="st1" d="M19.3,12H17c-2,0-3.6,1.6-3.6,3.6v19.8c0,2,1.6,3.6,3.6,3.6h5.5"/>
		<path class="st1" d="M30.7,12H33c2,0,3.6,1.6,3.6,3.6v19.8c0,2-1.6,3.6-3.6,3.6h-5.5"/>
		<line class="st1" x1="17.2" y1="16.5" x2="32.6" y2="16.5"/>
		<path class="st1" d="M22.5,16.5v-3.1c0-1.4,1.1-2.5,2.5-2.5h0c1.4,0,2.5,1.1,2.5,2.5v3.1"/>
	</g>
	<g>
		<path class="st2" d="M29.4,29.8l1.7,1.5c-1,1.4-2.7,2.1-4.6,2.1c-2.9,0-5.1-1.5-5.8-4.1h-1.9v-1.4h1.5c0-0.2,0-0.3,0-0.5
			c0-0.2,0-0.3,0-0.5h-1.5v-1.4h1.9c0.7-2.4,3.1-4.1,5.8-4.1c2.1,0,3.6,0.7,4.6,2.1L29.4,25c-0.9-0.9-1.7-1.4-2.9-1.4
			c-1.4,0-2.6,0.7-3.2,1.9h4.1v1.4h-4.4c0,0.2,0,0.3,0,0.5c0,0.2,0,0.3,0,0.5h4.4v1.4h-4.1c0.5,1.2,1.7,1.9,3.2,1.9
			C27.7,31.2,28.8,30.8,29.4,29.8z"/>
	</g>
</g>
</svg>
