<?xml version="1.0" encoding="utf-8"?>
<!-- Generator: Adobe Illustrator 29.8.3, SVG Export Plug-In . SVG Version: 9.03 Build 0)  -->
<svg version="1.1" baseProfile="basic" id="Layer_1"
	 xmlns="http://www.w3.org/2000/svg" xmlns:xlink="http://www.w3.org/1999/xlink" x="0px" y="0px" viewBox="0 0 50 50"
	 xml:space="preserve">
<style type="text/css">
	.st0{fill:#0E3B40;}
	.st1{fill:none;stroke:#00C9A7;stroke-width:1.5664;stroke-linecap:round;stroke-linejoin:round;stroke-miterlimit:10;}
</style>
<g id="Layer_1_00000040542441983678470020000015948322929493765049_">
</g>
<rect x="-5.7" y="-4.9" class="st0" width="61.5" height="61.5"/>
<g>
	<path class="st1" d="M21.1,28.6c0,0-4,0.8-5.4,6.1c-0.6,2.2,1.1,4.4,3.4,4.4h6"/>
	<path class="st1" d="M28.9,28.6c0,0,4,0.8,5.4,6.1c0.6,2.2-1.1,4.4-3.4,4.4h-6"/>
	<circle class="st1" cx="25" cy="24.6" r="5.1"/>
	<path class="st1" d="M38.8,19.9c0,0,4,0.8,5.4,6.1c0.6,2.2-1.1,4.4-3.4,4.4h-5"/>
	<circle class="st1" cx="34.9" cy="16" r="5.1"/>
	<path class="st1" d="M11.2,19.9c0,0-4,0.8-5.4,6.1c-0.6,2.2,1.1,4.4,3.4,4.4h5"/>
	<circle class="st1" cx="15.1" cy="16" r="5.1"/>
</g>
</svg>
